<?xml version="1.0" encoding="UTF-8"?>
<svg version="1.1" xmlns="http://www.w3.org/2000/svg" width="142" height="142">
<path d="M0 0 C3.84709108 1.28236369 4.55593406 2.82840317 6.75 6.1875 C7.38421875 7.12980469 8.0184375 8.07210938 8.671875 9.04296875 C10.30243865 12.67337076 9.92077258 14.17651347 9 18 C7.79174805 20.53515625 7.79174805 20.53515625 6.26171875 23.0625 C5.69517578 24.01253906 5.12863281 24.96257813 4.54492188 25.94140625 C3.62549805 27.45541016 3.62549805 27.45541016 2.6875 29 C1.39711774 31.16510622 0.10940795 33.33180719 -1.17578125 35.5 C-1.82240723 36.59054688 -2.4690332 37.68109375 -3.13525391 38.8046875 C-5.86364055 43.47988053 -8.43980286 48.23121891 -11 53 C-15.90643667 62.12087591 -21.06933089 71.07275229 -26.36914062 79.97070312 C-26.92923828 80.91751953 -27.48933594 81.86433594 -28.06640625 82.83984375 C-28.56084229 83.66863037 -29.05527832 84.49741699 -29.56469727 85.35131836 C-31.2693852 88.49711856 -32.63050069 91.69496876 -34 95 C-33.00854225 94.96669083 -33.00854225 94.96669083 -31.99705505 94.93270874 C-25.1029989 94.7110706 -18.20995716 94.56049706 -11.31323242 94.45068359 C-8.74152511 94.40046443 -6.17010234 94.33227239 -3.59936523 94.24560547 C0.10243869 94.1239533 3.80046499 94.06752142 7.50390625 94.0234375 C8.64896133 93.97182465 9.79401642 93.92021179 10.97377014 93.86703491 C18.80371282 93.86156195 18.80371282 93.86156195 22.22457886 97.11700439 C24.04047926 99.6738714 25.54477046 102.22441593 27 105 C27.55494644 105.89206146 28.10989288 106.78412292 28.68165588 107.70321655 C30 110 30 110 30 112 C-1.02 112 -32.04 112 -64 112 C-62.60210955 108.50527389 -61.28283805 105.55006512 -59.453125 102.32421875 C-58.94539551 101.42662842 -58.43766602 100.52903809 -57.91455078 99.60424805 C-57.36524902 98.64172119 -56.81594727 97.67919434 -56.25 96.6875 C-55.67362793 95.67276611 -55.09725586 94.65803223 -54.50341797 93.61254883 C-49.26959599 84.4219122 -43.93975958 75.28811786 -38.59765625 66.16015625 C-34.89486997 59.82912964 -31.2251356 53.47932004 -27.5625 47.125 C-26.63969238 45.52458862 -26.63969238 45.52458862 -25.69824219 43.8918457 C-22.77163254 38.81450585 -19.8475599 33.73571656 -16.92692566 28.65493774 C-15.90350745 26.8749866 -14.87946987 25.09539331 -13.85522461 23.31591797 C-12.57221373 21.08650663 -11.29039912 18.85640624 -10.01000977 16.62548828 C-6.77819012 11.01164661 -3.47438493 5.46723968 0 0 Z " fill="#F2F5F6" transform="translate(70,13)"/>
<path d="M0 0 C4.00523058 1.33507686 5.15889419 3.87337777 7.25 7.3125 C7.62640625 7.89451172 8.0028125 8.47652344 8.390625 9.07617188 C11.00257224 13.31578476 11.00257224 13.31578476 10.9921875 16.078125 C9.05623984 19.82807085 6.25083441 22.9699828 3.6171875 26.24609375 C1.74814266 28.81127565 1.74814266 28.81127565 2.22998047 31.36181641 C3.062645 34.21462965 4.18605427 36.41097726 5.703125 38.96484375 C6.54580933 40.39582397 6.54580933 40.39582397 7.40551758 41.85571289 C8.31853638 43.38119751 8.31853638 43.38119751 9.25 44.9375 C10.18912231 46.52582642 10.18912231 46.52582642 11.1472168 48.14624023 C12.45043603 50.34895426 13.75670956 52.54986388 15.06591797 54.74902344 C16.88678644 57.80970062 18.69761888 60.87601302 20.50390625 63.9453125 C24.58087902 70.86968538 28.66179205 77.79136907 32.8125 84.671875 C33.23813232 85.37755615 33.66376465 86.0832373 34.10229492 86.81030273 C34.88669423 88.10803498 35.6731872 89.40450497 36.4621582 90.69946289 C39 94.89176258 39 94.89176258 39 96 C32.73 96 26.46 96 20 96 C19.06800781 94.37835938 18.13601562 92.75671875 17.17578125 91.0859375 C8.87872227 76.66702108 0.50127306 62.29986692 -8 48 C-10.99105675 51.56549811 -13.39112834 55.20519786 -15.6875 59.25 C-18.9121813 64.9121813 -18.9121813 64.9121813 -20 66 C-22.10131921 66.12602054 -24.20743788 66.1757922 -26.3125 66.1875 C-27.46363281 66.20167969 -28.61476563 66.21585937 -29.80078125 66.23046875 C-32.89795863 66.00735097 -34.34780353 65.45217919 -37 64 C-36.65445068 63.40912598 -36.30890137 62.81825195 -35.95288086 62.20947266 C-23.86534328 41.53274307 -11.84626415 20.81611911 0 0 Z " fill="#F7AD43" transform="translate(97,28)"/>
<path d="M0 0 C3.82876362 1.27625454 4.30650611 2.66024874 6.375 6.0625 C8.92372796 10.25623089 8.92372796 10.25623089 11.6015625 14.3671875 C12.06304687 15.05039063 12.52453125 15.73359375 13 16.4375 C13.4125 17.03433594 13.825 17.63117188 14.25 18.24609375 C15 20 15 20 14 24 C10.04 24 6.08 24 2 24 C1.67 22.68 1.34 21.36 1 20 C0.34 20 -0.32 20 -1 20 C-1.84678051 18.13103445 -2.67686211 16.25449819 -3.5 14.375 C-3.9640625 13.33085938 -4.428125 12.28671875 -4.90625 11.2109375 C-6.02767398 7.91875709 -6.207138 5.44884777 -6 2 C-2.25 0.875 -2.25 0.875 0 2 C0 1.34 0 0.68 0 0 Z " fill="#F9AD3F" transform="translate(117,99)"/>
<path d="M0 0 C1.12357734 3.37073202 0.91572296 3.8738453 -0.375 7 C-0.65085937 7.680625 -0.92671875 8.36125 -1.2109375 9.0625 C-1.47132812 9.701875 -1.73171875 10.34125 -2 11 C-2.33 11.99 -2.66 12.98 -3 14 C0.3 14 3.6 14 7 14 C7 13.34 7 12.68 7 12 C8.65 11.34 10.3 10.68 12 10 C9.125 15.875 9.125 15.875 8 17 C5.89868079 17.12602054 3.79256212 17.1757922 1.6875 17.1875 C0.53636719 17.20167969 -0.61476563 17.21585938 -1.80078125 17.23046875 C-5 17 -5 17 -9 15 C-6.03 10.05 -3.06 5.1 0 0 Z " fill="#D7A860" transform="translate(69,77)"/>
<path d="M0 0 C1.32 0 2.64 0 4 0 C4 0.66 4 1.32 4 2 C4.66 2.33 5.32 2.66 6 3 C6 4.32 6 5.64 6 7 C6.99 7.33 7.98 7.66 9 8 C9.3721042 9.32303717 9.70630173 10.65737935 10 12 C10.66 12.33 11.32 12.66 12 13 C13.6875 16.375 13.6875 16.375 15 20 C14.67 20.99 14.34 21.98 14 23 C13.56917114 22.25109497 13.56917114 22.25109497 13.12963867 21.48706055 C11.82045887 19.21769246 10.50407071 16.95258759 9.1875 14.6875 C8.73568359 13.90181641 8.28386719 13.11613281 7.81835938 12.30664062 C7.37685547 11.54931641 6.93535156 10.79199219 6.48046875 10.01171875 C6.07723389 9.31522217 5.67399902 8.61872559 5.25854492 7.90112305 C3.8783699 5.67908046 3.8783699 5.67908046 1 3 C-0.98 6.63 -2.96 10.26 -5 14 C-5.33 14 -5.66 14 -6 14 C-6 11.36 -6 8.72 -6 6 C-5.01 6 -4.02 6 -3 6 C-3 5.34 -3 4.68 -3 4 C-2.34 4 -1.68 4 -1 4 C-0.67 2.68 -0.34 1.36 0 0 Z " fill="#D9A45B" transform="translate(87,73)"/>
<path d="M0 0 C0.66 0 1.32 0 2 0 C2 0.66 2 1.32 2 2 C2.66 2 3.32 2 4 2 C4.433125 2.9075 4.86625 3.815 5.3125 4.75 C6.83939409 7.92540611 6.83939409 7.92540611 8.6875 10.1875 C10 12 10 12 10 15 C10.66 15 11.32 15 12 15 C12.33 15.99 12.66 16.98 13 18 C16.96 18.33 20.92 18.66 25 19 C24.67 16.36 24.34 13.72 24 11 C26.97501684 13.55001444 28.3114067 16.50929453 30 20 C17.0931626 22.28711834 17.0931626 22.28711834 11 20 C5.66591654 15.01853972 2.56797854 7.73552179 0 1 C0 0.67 0 0.34 0 0 Z " fill="#DFB46D" transform="translate(106,104)"/>
<path d="M0 0 C2.0625 2.25 2.0625 2.25 4 5 C3.67364878 9.93737808 -0.42397436 13.56546291 -3.3828125 17.24609375 C-5.24443675 19.83937909 -5.24443675 19.83937909 -4.87109375 22.578125 C-4.02585342 24.92812055 -3.09884549 27.10219728 -1.9375 29.3125 C-1.57527344 30.00988281 -1.21304688 30.70726563 -0.83984375 31.42578125 C-0.56269531 31.94527344 -0.28554687 32.46476562 0 33 C-3.58349082 31.80550306 -4.44376611 30.30054082 -6.21484375 27.0546875 C-7.52475096 23.62677111 -7.25495886 20.63316378 -7 17 C-6.01 17 -5.02 17 -4 17 C-4 15.35 -4 13.7 -4 12 C-2.68 11.67 -1.36 11.34 0 11 C0 7.37 0 3.74 0 0 Z " fill="#DBA85D" transform="translate(104,37)"/>
<path d="M0 0 C0.6875 1.6875 0.6875 1.6875 1 4 C-0.3125 6.75 -0.3125 6.75 -2 9 C-2.66 9 -3.32 9 -4 9 C-4.66 11.31 -5.32 13.62 -6 16 C-6.66 16 -7.32 16 -8 16 C-8.18175781 16.63808594 -8.36351563 17.27617188 -8.55078125 17.93359375 C-8.80214844 18.75988281 -9.05351563 19.58617188 -9.3125 20.4375 C-9.55613281 21.26121094 -9.79976563 22.08492187 -10.05078125 22.93359375 C-10.36402344 23.61550781 -10.67726563 24.29742187 -11 25 C-11.99 25.33 -12.98 25.66 -14 26 C-12.47688504 20.55659483 -9.89682184 16.10880931 -7 11.3125 C-6.32324219 10.17458008 -6.32324219 10.17458008 -5.6328125 9.01367188 C-3.8121804 5.96222783 -1.97161966 2.95742949 0 0 Z " fill="#D2A666" transform="translate(95,32)"/>
<path d="M0 0 C0.97918775 3.07556958 1.1498998 3.68592423 -0.3125 6.75 C-0.869375 7.4925 -1.42625 8.235 -2 9 C-2.66 9 -3.32 9 -4 9 C-4.33 11.64 -4.66 14.28 -5 17 C-6.65 17.66 -8.3 18.32 -10 19 C-8.62394084 14.23448987 -6.53221934 10.2751447 -3.875 6.125 C-3.50246094 5.53203125 -3.12992187 4.9390625 -2.74609375 4.328125 C-1.83635 2.8818657 -0.91896202 1.44041954 0 0 Z " fill="#E2A85E" transform="translate(80,58)"/>
<path d="M0 0 C2.96655321 3.55854831 5.45858103 7.1982268 7.8125 11.1875 C8.43769531 12.23292969 9.06289062 13.27835938 9.70703125 14.35546875 C10.13371094 15.22816406 10.56039062 16.10085937 11 17 C10.67 17.66 10.34 18.32 10 19 C8.8936781 17.43902526 7.79004215 15.87614673 6.6875 14.3125 C6.07261719 13.44238281 5.45773438 12.57226562 4.82421875 11.67578125 C0 4.59957173 0 4.59957173 0 0 Z " fill="#D9A962" transform="translate(119,96)"/>
<path d="M0 0 C0.66 0 1.32 0 2 0 C2 0.66 2 1.32 2 2 C2.66 2 3.32 2 4 2 C4.61875 3.2684375 4.61875 3.2684375 5.25 4.5625 C7.05963279 8.11713583 8.99919438 11.55033514 11 15 C10.34 15.66 9.68 16.32 9 17 C7.49743011 14.35559624 5.9978388 11.70958148 4.5 9.0625 C4.07074219 8.30775391 3.64148438 7.55300781 3.19921875 6.77539062 C2.79316406 6.05673828 2.38710937 5.33808594 1.96875 4.59765625 C1.59169922 3.93258057 1.21464844 3.26750488 0.82617188 2.58227539 C0 1 0 1 0 0 Z " fill="#D2A565" transform="translate(106,104)"/>
<path d="M0 0 C1.0625 1.875 1.0625 1.875 2 4 C1.67 4.66 1.34 5.32 1 6 C-2.96 6 -6.92 6 -11 6 C-11.33 5.34 -11.66 4.68 -12 4 C-8.37 4 -4.74 4 -1 4 C-0.67 2.68 -0.34 1.36 0 0 Z " fill="#EFAF50" transform="translate(130,117)"/>
<path d="M0 0 C3 1 3 1 4.16796875 2.84765625 C4.50441406 3.57855469 4.84085937 4.30945312 5.1875 5.0625 C5.53167969 5.79597656 5.87585938 6.52945313 6.23046875 7.28515625 C6.48441406 7.85105469 6.73835938 8.41695312 7 9 C6.01 9.495 6.01 9.495 5 10 C3 7 3 7 3 4 C1.68 4 0.36 4 -1 4 C-0.67 2.68 -0.34 1.36 0 0 Z " fill="#D1A96C" transform="translate(97,28)"/>
<path d="M0 0 C2.63978826 3.18595135 5.10498388 6.30970546 7 10 C6.67 10.66 6.34 11.32 6 12 C5.34 10.68 4.68 9.36 4 8 C3.01 8 2.02 8 1 8 C0.67 5.36 0.34 2.72 0 0 Z " fill="#DBAB5B" transform="translate(112,84)"/>
<path d="M0 0 C4.01813472 4.38341969 4.01813472 4.38341969 3.9375 7.125 C3 9 3 9 0 12 C0 8.04 0 4.08 0 0 Z " fill="#D5A667" transform="translate(104,37)"/>
<path d="M0 0 C1 4 1 4 -0.3125 6.75 C-0.869375 7.4925 -1.42625 8.235 -2 9 C-2.66 9 -3.32 9 -4 9 C-4 9.66 -4 10.32 -4 11 C-4.66 10.67 -5.32 10.34 -6 10 C-4.02 6.7 -2.04 3.4 0 0 Z " fill="#D5A767" transform="translate(80,58)"/>
<path d="M0 0 C0.66 0.33 1.32 0.66 2 1 C2 1.66 2 2.32 2 3 C1.01 3.495 1.01 3.495 0 4 C-0.309375 4.825 -0.61875 5.65 -0.9375 6.5 C-1.288125 7.325 -1.63875 8.15 -2 9 C-2.99 9.33 -3.98 9.66 -5 10 C-3.66511872 6.40608886 -2.03977277 3.24509304 0 0 Z " fill="#D4DFE8" transform="translate(12,113)"/>
<path d="M0 0 C1 4 1 4 -0.4375 6.75 C-1.2109375 7.86375 -1.2109375 7.86375 -2 9 C-2.99 8.67 -3.98 8.34 -5 8 C-3.35 5.36 -1.7 2.72 0 0 Z " fill="#D1DBE3" transform="translate(63,25)"/>
<path d="M0 0 C2.96865509 2.54456151 4.3619751 5.48994665 6 9 C4.35 8.67 2.7 8.34 1 8 C0.67 5.36 0.34 2.72 0 0 Z " fill="#D6AC6C" transform="translate(130,115)"/>
<path d="M0 0 C1.32 0 2.64 0 4 0 C2.25 5.75 2.25 5.75 0 8 C0 5.36 0 2.72 0 0 Z " fill="#E1A956" transform="translate(81,79)"/>
<path d="M0 0 C0.6875 1.6875 0.6875 1.6875 1 4 C-0.3125 6.75 -0.3125 6.75 -2 9 C-2.66 9 -3.32 9 -4 9 C-2.94124926 5.59687262 -1.99097846 2.98646769 0 0 Z " fill="#D6DFE9" transform="translate(27,87)"/>
<path d="M0 0 C0.66 1.32 1.32 2.64 2 4 C0.71937515 5.7074998 -0.61767557 7.37373596 -2 9 C-2.66 9 -3.32 9 -4 9 C-2.80100302 5.9168649 -1.52299523 2.93720508 0 0 Z " fill="#D7DFE9" transform="translate(57,35)"/>
<path d="M0 0 C4.875 4.625 4.875 4.625 6 8 C5.01 8.495 5.01 8.495 4 9 C0 2.25 0 2.25 0 0 Z " fill="#F4AB4E" transform="translate(123,107)"/>
<path d="M0 0 C0.66 0.99 1.32 1.98 2 3 C0.68 4.65 -0.64 6.3 -2 8 C-2.33 7.01 -2.66 6.02 -3 5 C-1.5625 2.3125 -1.5625 2.3125 0 0 Z " fill="#D7E0E9" transform="translate(52,44)"/>
</svg>
