<?xml version="1.0" encoding="UTF-8"?>
<svg version="1.1" xmlns="http://www.w3.org/2000/svg" width="621" height="402">
<path d="M0 0 C4.29 0 8.58 0 13 0 C13 9.24 13 18.48 13 28 C21.25 28 29.5 28 38 28 C38 18.76 38 9.52 38 0 C51.53 0 65.06 0 79 0 C79.495 1.485 79.495 1.485 80 3 C78.85546875 5.19140625 78.85546875 5.19140625 77.1875 7.5625 C76.64480469 8.34753906 76.10210937 9.13257813 75.54296875 9.94140625 C74 12 74 12 72 14 C74.97 14.495 74.97 14.495 78 15 C77.36934243 18.21852831 76.21979305 20.50801069 74.4375 23.25 C73.98246094 23.95640625 73.52742188 24.6628125 73.05859375 25.390625 C72.53458984 26.18726563 72.53458984 26.18726563 72 27 C74.31 27.33 76.62 27.66 79 28 C80 31 80 31 78.96289062 33.67504883 C76.89475947 37.07432981 75.08742319 39.46560218 72 42 C66.10817668 43.37062573 60.50070595 43.04786378 54.5 42.6875 C52.89860589 42.63225158 51.29702835 42.58207384 49.6953125 42.53710938 C45.79230595 42.41656504 41.8981888 42.2272672 38 42 C37.505 38.04 37.505 38.04 37 34 C36.75032471 34.57097412 36.50064941 35.14194824 36.2434082 35.73022461 C34.73004312 38.42460909 33.44715798 40.08489987 31 42 C25.71510827 43.0557587 20.5355126 42.79894605 15.1875 42.5625 C13.72989108 42.53091496 12.27220053 42.50288501 10.81445312 42.47851562 C0.24596812 42.24596812 0.24596812 42.24596812 -1 41 C-1.10110353 38.0546443 -1.13969279 35.1332244 -1.1328125 32.1875 C-1.13376923 31.30344482 -1.13472595 30.41938965 -1.13571167 29.50854492 C-1.13639351 27.63557871 -1.13453893 25.76261014 -1.13037109 23.88964844 C-1.12502289 21.01231612 -1.13031593 18.13513992 -1.13671875 15.2578125 C-1.13605797 13.44270799 -1.13477681 11.62760357 -1.1328125 9.8125 C-1.13483673 8.94584717 -1.13686096 8.07919434 -1.13894653 7.1862793 C-1.11495009 1.11495009 -1.11495009 1.11495009 0 0 Z " fill="#ECA632" transform="translate(178,159)"/>
<path d="M0 0 C3.26991663 0.59787867 3.88916026 0.87025582 6.17578125 3.546875 C6.88089844 4.60390625 7.58601563 5.6609375 8.3125 6.75 C9.03050781 7.79671875 9.74851563 8.8434375 10.48828125 9.921875 C12 13 12 13 11.8828125 15.62109375 C10.97884921 18.05699483 9.95432166 20.11945162 8.5625 22.3125 C8.13066406 23.00988281 7.69882813 23.70726562 7.25390625 24.42578125 C6.63322266 25.20501953 6.63322266 25.20501953 6 26 C5.34 26 4.68 26 4 26 C6.63403334 30.91605301 9.40562469 35.69243702 12.4375 40.375 C15.31925124 44.84668295 17.88846351 49.41192367 20.39453125 54.1015625 C22.20969548 57.37857432 24.1494832 60.5683878 26.125 63.75 C27.13240234 65.37808594 27.13240234 65.37808594 28.16015625 67.0390625 C29.24627011 68.78699095 30.33593483 70.53273589 31.43359375 72.2734375 C32.5625 74.125 32.5625 74.125 34 77 C33.505 78.485 33.505 78.485 33 80 C27.01669548 81.12557214 20.83812046 82.21697592 15 80 C10.24347321 75.58214996 7.73101103 69.35688086 5.14477539 63.51000977 C2.33190946 57.34258075 -1.14649527 51.5661735 -5 46 C-8.97160542 48.28941438 -8.97160542 48.28941438 -12 56 C-17.94 56 -23.88 56 -30 56 C-30 52.14700335 -29.94579448 51.41306216 -28.09375 48.3828125 C-27.68398926 47.7012207 -27.27422852 47.01962891 -26.85205078 46.31738281 C-26.18278564 45.23215332 -26.18278564 45.23215332 -25.5 44.125 C-24.56957688 42.58117227 -23.639898 41.03689577 -22.7109375 39.4921875 C-22.2478418 38.72745117 -21.78474609 37.96271484 -21.30761719 37.17480469 C-19.53385604 34.224718 -17.82592358 31.24276427 -16.125 28.25 C-15.18527344 26.59871094 -15.18527344 26.59871094 -14.2265625 24.9140625 C-13.8852832 24.31368164 -13.54400391 23.71330078 -13.19238281 23.09472656 C-10.63454627 18.60122993 -8.06601235 14.11383097 -5.5 9.625 C-4.44788294 7.78387344 -3.39579684 5.94272918 -2.34375 4.1015625 C-1.5625 2.734375 -0.78125 1.3671875 0 0 Z " fill="#F7AC30" transform="translate(132,145)"/>
<path d="M0 0 C1.44790266 0.01508232 2.89582062 0.02876442 4.34375 0.04101562 C7.85448994 0.07372151 11.36464399 0.12530489 14.875 0.1875 C15.9921875 3.90625 15.9921875 3.90625 14.9375 6.4375 C14.4115625 7.30375 14.4115625 7.30375 13.875 8.1875 C13.215 8.1875 12.555 8.1875 11.875 8.1875 C11.215 10.1675 10.555 12.1475 9.875 14.1875 C8.225 14.5175 6.575 14.8475 4.875 15.1875 C5.9475 15.435 7.02 15.6825 8.125 15.9375 C12.03742637 17.24164212 13.60953774 17.78930661 15.875 21.1875 C17.42582459 26.6100384 17.1420079 31.36533118 14.89453125 36.52734375 C12.9713523 39.65895699 10.36371016 40.7550057 6.94976807 41.74681091 C3.53641182 42.47182152 0.08298429 42.30853658 -3.390625 42.28515625 C-4.18402283 42.2837413 -4.97742065 42.28232635 -5.79486084 42.28086853 C-8.32161272 42.27528415 -10.84827504 42.26273454 -13.375 42.25 C-15.09114455 42.24498298 -16.80729049 42.24042043 -18.5234375 42.23632812 C-22.72399269 42.22531984 -26.92448117 42.20806596 -31.125 42.1875 C-31.52753491 36.85287809 -29.85611785 34.13203739 -26.52685547 30.08642578 C-21.85469606 26.39257989 -16.40532962 26.99086652 -10.6875 27.125 C-8.87475586 27.11436523 -8.87475586 27.11436523 -7.02539062 27.10351562 C-4.05618815 27.09177965 -1.0933082 27.12094315 1.875 27.1875 C0.77043457 27.157771 0.77043457 27.157771 -0.35644531 27.12744141 C-3.69632056 27.03212172 -7.03557639 26.92247004 -10.375 26.8125 C-11.53386719 26.7815625 -12.69273437 26.750625 -13.88671875 26.71875 C-15.55927734 26.66074219 -15.55927734 26.66074219 -17.265625 26.6015625 C-18.29204102 26.5701416 -19.31845703 26.5387207 -20.37597656 26.50634766 C-24.22738461 26.05963905 -26.32735709 25.0990919 -28.875 22.1875 C-31.20085364 16.60545127 -30.98116273 11.32790682 -28.75 5.75 C-21.283447 -1.53877793 -9.72023669 -0.1774825 0 0 Z " fill="#F3AA2F" transform="translate(340.125,158.8125)"/>
<path d="M0 0 C2.9795099 -0.26653946 5.7488582 -0.34767784 8.7265625 -0.29296875 C9.58937836 -0.28872391 10.45219421 -0.28447906 11.34115601 -0.28010559 C14.10275197 -0.26328392 16.86362383 -0.22562598 19.625 -0.1875 C21.49478114 -0.17245764 23.3645737 -0.15876846 25.234375 -0.14648438 C29.82319658 -0.11336906 34.41147544 -0.06156339 39 0 C39.495 1.98 39.495 1.98 40 4 C40.59683594 3.71125 41.19367188 3.4225 41.80859375 3.125 C51.73275834 -1.12189361 63.45217588 -2.03850096 73.75 1.625 C78.64065939 3.95785286 81.56742551 7.13485102 84 12 C84.06058594 11.21753906 84.12117188 10.43507812 84.18359375 9.62890625 C84.30927734 8.11103516 84.30927734 8.11103516 84.4375 6.5625 C84.55931641 5.04849609 84.55931641 5.04849609 84.68359375 3.50390625 C85 1 85 1 86 0 C90.29 0 94.58 0 99 0 C99.33 8.91 99.66 17.82 100 27 C103.06698637 28.02232879 105.28664878 28.1659049 108.5 28.1875 C109.4590625 28.20167969 110.418125 28.21585938 111.40625 28.23046875 C114.23746139 28.18755111 114.23746139 28.18755111 117 26 C117.49370704 23.40371156 117.49370704 23.40371156 117.4765625 20.37109375 C117.5075 19.25412109 117.5384375 18.13714844 117.5703125 16.98632812 C117.58835937 15.81521484 117.60640625 14.64410156 117.625 13.4375 C117.67577107 11.12360867 117.73025092 8.80979468 117.7890625 6.49609375 C117.81540771 4.95199829 117.81540771 4.95199829 117.84228516 3.37670898 C118 1 118 1 119 0 C120.99799572 -0.09873816 122.99957158 -0.12971799 125 -0.125 C126.093125 -0.12757813 127.18625 -0.13015625 128.3125 -0.1328125 C131 0 131 0 132 1 C132.28359002 5.55591661 132.23189914 10.12382056 132.25 14.6875 C132.2809375 16.60852539 132.2809375 16.60852539 132.3125 18.56835938 C132.32023437 20.42750977 132.32023437 20.42750977 132.328125 22.32421875 C132.3374707 23.45947998 132.34681641 24.59474121 132.35644531 25.7644043 C131.74648451 31.30126081 129.31702067 35.52240002 125 39 C119.60072819 41.76448177 115.22354826 42.54990585 109.1875 42.5 C108.00099854 42.49250732 108.00099854 42.49250732 106.79052734 42.48486328 C100.35733088 42.29351693 95.11713235 41.13679752 90 37 C87.47674601 34.27951052 86.17702931 31.53108792 85 28 C84.731875 28.51949219 84.46375 29.03898437 84.1875 29.57421875 C80.8619241 35.49243113 76.80085126 39.61171163 70.12573242 41.54199219 C61.56106708 43.38732493 49.89227564 43.35042299 41.9921875 39.359375 C38.14194199 36.73214865 35.62294705 34.45666412 34 30 C33.33811343 24.67800152 33.65037107 19.33507847 34 14 C30.04 14 26.08 14 22 14 C22.01160156 15.93746094 22.02320313 17.87492187 22.03515625 19.87109375 C22.04453221 22.39322821 22.05363262 24.9153637 22.0625 27.4375 C22.07087891 28.71689453 22.07925781 29.99628906 22.08789062 31.31445312 C22.09272461 33.13686523 22.09272461 33.13686523 22.09765625 34.99609375 C22.10551147 36.68496704 22.10551147 36.68496704 22.11352539 38.40795898 C22 41 22 41 21 42 C19.00200428 42.09873816 17.00042842 42.12971799 15 42.125 C13.906875 42.12757813 12.81375 42.13015625 11.6875 42.1328125 C9 42 9 42 8 41 C7.91241997 39.00035018 7.89303424 36.9976389 7.90234375 34.99609375 C7.90556641 33.78115234 7.90878906 32.56621094 7.91210938 31.31445312 C7.92048828 30.03505859 7.92886719 28.75566406 7.9375 27.4375 C7.94201172 26.15423828 7.94652344 24.87097656 7.95117188 23.54882812 C7.96300445 20.3658658 7.98094056 17.18292726 8 14 C3.05 14 -1.9 14 -7 14 C-7.33 13.34 -7.66 12.68 -8 12 C-4 6 -4 6 0 0 Z M40.265625 8.2734375 C36.67213821 13.17566331 34.58137252 18.12842305 35.47265625 24.2421875 C36.81895394 28.70077661 38.22122311 32.11598299 41.3125 35.625 C46.99730877 38.53350681 52.61573629 39.36474598 58.9375 39.3125 C59.64044189 39.30758545 60.34338379 39.3026709 61.06762695 39.29760742 C67.96603854 39.14153476 72.32834492 38.03278104 77.875 33.8125 C81.57730981 28.91238407 82.28476157 24.26419824 81.75 18.3125 C80.95955974 12.28587427 80.95955974 12.28587427 77.3359375 7.625 C72.9600251 4.65140701 69.35549254 3.28186803 64 3 C63.31164062 2.96132812 62.62328125 2.92265625 61.9140625 2.8828125 C54.62885314 2.65275326 45.76886091 2.86508496 40.265625 8.2734375 Z M-1.42675781 6.91162109 C-2.28948824 8.60521822 -3.14999117 10.29998235 -4 12 C0.95 12 5.9 12 11 12 C11 20.91 11 29.82 11 39 C13.64 39 16.28 39 19 39 C19 30.09 19 21.18 19 12 C22.96 12 26.92 12 31 12 C33.56834049 9.31491676 35 7.77787347 35 4 C30.23125836 3.85150038 25.46386585 3.74271977 20.69335938 3.67041016 C19.0713761 3.64026538 17.44955548 3.59934059 15.828125 3.54736328 C13.49438389 3.47443387 11.16279889 3.44052511 8.828125 3.4140625 C8.10506165 3.38309479 7.38199829 3.35212708 6.63702393 3.32022095 C2.47466354 3.31744859 1.29048234 3.65147964 -1.42675781 6.91162109 Z M88 4 C87.94564854 7.33355646 87.9061569 10.66621125 87.875 14 C87.85824219 14.93457031 87.84148437 15.86914062 87.82421875 16.83203125 C87.6539992 26.84403681 87.6539992 26.84403681 92.1875 35.375 C100.05878553 39.92285386 109.8894125 40.53876512 118.68359375 38.32421875 C121.06395691 37.46547631 121.06395691 37.46547631 124 36 C124 35.34 124 34.68 124 34 C124.99 33.67 125.98 33.34 127 33 C129.84196557 27.41017369 129.22273003 21.22936796 129.125 15.125 C129.11597656 14.05507812 129.10695313 12.98515625 129.09765625 11.8828125 C129.07419342 9.25497561 129.04136459 6.62760594 129 4 C126.36 4 123.72 4 121 4 C120.96241577 4.91495239 120.96241577 4.91495239 120.92407227 5.84838867 C120.8075942 8.62827898 120.68510368 11.4078734 120.5625 14.1875 C120.52318359 15.14720703 120.48386719 16.10691406 120.44335938 17.09570312 C120.38051758 18.49272461 120.38051758 18.49272461 120.31640625 19.91796875 C120.27974854 20.77156982 120.24309082 21.6251709 120.20532227 22.50463867 C119.99468906 25.06454594 119.55158464 27.49333243 119 30 C117.39868185 30.22920221 115.79356233 30.43182327 114.1875 30.625 C112.84751953 30.79902344 112.84751953 30.79902344 111.48046875 30.9765625 C106.6089975 31.00936702 101.79300265 29.87145503 97 29 C97 20.75 97 12.5 97 4 C94.03 4 91.06 4 88 4 Z " fill="#ABA38D" transform="translate(380,159)"/>
<path d="M0 0 C0.9607695 0.00022659 1.921539 0.00045319 2.91142273 0.00068665 C4.46310905 0.02391243 4.46310905 0.02391243 6.04614258 0.04760742 C7.10730789 0.05185226 8.16847321 0.05609711 9.26179504 0.06047058 C12.65501148 0.07727911 16.04763655 0.11493599 19.44067383 0.15307617 C21.73949338 0.16812017 24.03832224 0.18180907 26.3371582 0.1940918 C31.97603225 0.22718972 37.61456079 0.27741087 43.25317383 0.34057617 C44.44727803 5.20236048 43.66009338 7.88473338 41.87817383 12.59057617 C41.64356445 13.22737305 41.40895508 13.86416992 41.16723633 14.52026367 C39.42744041 19.16630959 39.42744041 19.16630959 38.25317383 20.34057617 C35.25317383 20.46557617 35.25317383 20.46557617 32.25317383 20.34057617 C30.67044782 18.75785016 30.90581636 16.96023614 30.69067383 14.77807617 C30.60688477 13.95178711 30.5230957 13.12549805 30.43676758 12.27416992 C30.37618164 11.63608398 30.3155957 10.99799805 30.25317383 10.34057617 C29.87547852 10.99541992 29.4977832 11.65026367 29.10864258 12.32495117 C27.25317383 14.34057617 27.25317383 14.34057617 24.55395508 14.73120117 C23.56782227 14.68479492 22.58168945 14.63838867 21.56567383 14.59057617 C20.57180664 14.55448242 19.57793945 14.51838867 18.55395508 14.48120117 C17.41506836 14.4115918 17.41506836 14.4115918 16.25317383 14.34057617 C16.26102905 15.55958618 16.26102905 15.55958618 16.26904297 16.80322266 C16.28974377 20.46149939 16.30281186 24.11976384 16.31567383 27.77807617 C16.32405273 29.0574707 16.33243164 30.33686523 16.34106445 31.6550293 C16.34589844 33.47744141 16.34589844 33.47744141 16.35083008 35.33666992 C16.3586853 37.02554321 16.3586853 37.02554321 16.36669922 38.74853516 C16.25317383 41.34057617 16.25317383 41.34057617 15.25317383 42.34057617 C13.25517811 42.43931433 11.25360225 42.47029416 9.25317383 42.46557617 C8.16004883 42.4681543 7.06692383 42.47073242 5.94067383 42.47338867 C3.25317383 42.34057617 3.25317383 42.34057617 2.25317383 41.34057617 C2.1655938 39.34092635 2.14620807 37.33821507 2.15551758 35.33666992 C2.15874023 34.12172852 2.16196289 32.90678711 2.1652832 31.6550293 C2.17366211 30.37563477 2.18204102 29.09624023 2.19067383 27.77807617 C2.19518555 26.49481445 2.19969727 25.21155273 2.2043457 23.8894043 C2.21617828 20.70644197 2.23411438 17.52350343 2.25317383 14.34057617 C-2.69682617 14.34057617 -7.64682617 14.34057617 -12.74682617 14.34057617 C-13.07682617 13.68057617 -13.40682617 13.02057617 -13.74682617 12.34057617 C-12.80932617 10.21557617 -12.80932617 10.21557617 -11.74682617 8.34057617 C-11.08682617 8.34057617 -10.42682617 8.34057617 -9.74682617 8.34057617 C-9.47870117 7.57745117 -9.21057617 6.81432617 -8.93432617 6.02807617 C-6.87424827 1.36579461 -5.11926907 -0.04030921 0 0 Z " fill="#CCA25C" transform="translate(266.746826171875,158.659423828125)"/>
<path d="M0 0 C2.88568536 0.34551443 3.91033945 0.90658122 5.95703125 3.0390625 C6.87548828 4.31910156 6.87548828 4.31910156 7.8125 5.625 C8.43769531 6.46289062 9.06289062 7.30078125 9.70703125 8.1640625 C11.47864771 12.04984362 11.12836776 13.87974803 10 18 C8.43429028 21.33546438 6.58362073 24.46814657 4.6875 27.625 C3.59341117 29.49068676 2.49967137 31.35657823 1.40625 33.22265625 C0.84292969 34.17543457 0.27960938 35.12821289 -0.30078125 36.10986328 C-3.01918737 40.73349714 -5.66249909 45.39944452 -8.3125 50.0625 C-12.08593408 56.68093523 -15.89411065 63.27478431 -19.79296875 69.8203125 C-21.12400694 72.06711858 -21.12400694 72.06711858 -22 75 C-20.22955322 74.92930298 -20.22955322 74.92930298 -18.42333984 74.85717773 C-14.02943745 74.69384395 -9.63580058 74.59081009 -5.23974609 74.50561523 C-3.34019813 74.46044957 -1.44096146 74.39909831 0.45751953 74.32104492 C16.28016649 73.68697866 16.28016649 73.68697866 20.54418945 76.94238281 C22.09405469 79.26800418 23.07489044 81.37363206 24 84 C24.639375 84.94875 25.27875 85.8975 25.9375 86.875 C26.288125 87.57625 26.63875 88.2775 27 89 C26.505 90.485 26.505 90.485 26 92 C0.59 92 -24.82 92 -51 92 C-50.16441747 86.9865048 -49.77117682 85.08159332 -47.33203125 81.04296875 C-46.77467285 80.10646484 -46.21731445 79.16996094 -45.64306641 78.20507812 C-44.73693604 76.71137695 -44.73693604 76.71137695 -43.8125 75.1875 C-42.54353463 73.05720242 -41.27667761 70.92564781 -40.01171875 68.79296875 C-39.35478027 67.68743652 -38.6978418 66.5819043 -38.02099609 65.44287109 C-34.63612127 59.67656223 -31.37936998 53.84084193 -28.125 48 C-27.51245361 46.90196045 -26.89990723 45.8039209 -26.26879883 44.67260742 C-24.84400967 42.11609699 -23.42095929 39.55864053 -22 37 C-21.34 37 -20.68 37 -20 37 C-19.73429199 36.12529053 -19.46858398 35.25058105 -19.19482422 34.34936523 C-18.03144925 31.08815944 -16.64423998 28.38375718 -14.8828125 25.41015625 C-13.97208984 23.86231445 -13.97208984 23.86231445 -13.04296875 22.28320312 C-12.41003906 21.22037109 -11.77710938 20.15753906 -11.125 19.0625 C-9.87741846 16.94932838 -8.63001796 14.83604986 -7.3828125 12.72265625 C-6.79790039 11.73539551 -6.21298828 10.74813477 -5.61035156 9.73095703 C-3.70804217 6.50487565 -1.84510303 3.25906389 0 0 Z M1 4 C0.47792969 4.93457031 -0.04414062 5.86914062 -0.58203125 6.83203125 C-16.50111345 35.26840007 -16.50111345 35.26840007 -22.8125 44.9375 C-25.79316012 49.51875326 -28.19988378 54.27509578 -30.578125 59.19140625 C-31.8870989 61.77698932 -33.30746338 64.19003441 -34.875 66.625 C-37.17760442 69.61736694 -37.17760442 69.61736694 -37 72 C-37.66 72 -38.32 72 -39 72 C-39.96087136 73.89454824 -40.91858969 75.79069581 -41.875 77.6875 C-42.40867187 78.74324219 -42.94234375 79.79898438 -43.4921875 80.88671875 C-44.77646947 83.53846157 -45.90574414 86.26436036 -47 89 C-23.9 89 -0.8 89 23 89 C18.98441737 80.80126996 18.98441737 80.80126996 16 78 C14.06131877 77.70879727 14.06131877 77.70879727 11.82568359 77.77294922 C10.96494232 77.77310028 10.10420105 77.77325134 9.21737671 77.77340698 C8.28712677 77.78372955 7.35687683 77.79405212 6.3984375 77.8046875 C5.44683746 77.8075174 4.49523743 77.81034729 3.51480103 77.81326294 C0.46807408 77.82448011 -2.57836154 77.84958737 -5.625 77.875 C-7.68749576 77.88502782 -9.74999612 77.89415401 -11.8125 77.90234375 C-16.87511267 77.92442446 -21.9375069 77.9589647 -27 78 C-20.20650041 64.06060026 -20.20650041 64.06060026 -16.21582031 57.92822266 C-13.72168351 53.97266191 -11.58456484 49.80638924 -9.375 45.6875 C-6.26209658 39.89188797 -3.12319179 34.13692667 0.296875 28.515625 C0.81427246 27.65880127 1.33166992 26.80197754 1.86474609 25.91918945 C2.85235589 24.29632272 3.85477408 22.68235217 4.87353516 21.07885742 C7.56339051 16.91829776 7.56339051 16.91829776 7.390625 12.1796875 C6.70226562 11.10074219 6.70226562 11.10074219 6 10 C5.46375 8.906875 4.9275 7.81375 4.375 6.6875 C3.694375 5.3571875 3.694375 5.3571875 3 4 C2.34 4 1.68 4 1 4 Z " fill="#919191" transform="translate(111,134)"/>
<path d="M0 0 C1.07830078 0.00322266 2.15660156 0.00644531 3.26757812 0.00976562 C4.31107422 -0.00634766 5.35457031 -0.02246094 6.4296875 -0.0390625 C13.79299947 -0.04363315 22.29715187 0.20662884 28.58227539 4.52661133 C31.82806948 7.88554353 32.69825218 11.58463757 32.97070312 16.08007812 C32.64601487 21.25705191 30.1300221 25.3937609 26.83007812 29.32226562 C27.49007812 30.64226562 28.15007813 31.96226562 28.83007812 33.32226562 C29.49007812 33.32226562 30.15007813 33.32226562 30.83007812 33.32226562 C33.02226299 35.59876529 33.81207051 36.76812209 33.91601562 39.96679688 C33.87347656 41.13275391 33.87347656 41.13275391 33.83007812 42.32226562 C22.61151801 43.41314602 22.61151801 43.41314602 17.83007812 42.32226562 C15.45817371 40.19892668 14.22159274 38.12682012 12.62304688 35.39257812 C10.1053631 32.48544872 8.15878048 32.53096719 4.39257812 32.25976562 C2.53840747 32.23929012 0.6828014 32.24620966 -1.16992188 32.32226562 C-1.15832031 32.96035156 -1.14671875 33.5984375 -1.13476562 34.25585938 C-1.12574219 35.08214844 -1.11671875 35.9084375 -1.10742188 36.75976562 C-1.09582031 37.58347656 -1.08421875 38.4071875 -1.07226562 39.25585938 C-1.16992188 41.32226562 -1.16992188 41.32226562 -2.16992188 42.32226562 C-6.50523105 42.46620019 -10.83149919 42.36438623 -15.16992188 42.32226562 C-15.16992188 34.73226562 -15.16992188 27.14226562 -15.16992188 19.32226562 C0.17507813 18.82726562 0.17507813 18.82726562 15.83007812 18.32226562 C15.83007812 17.33226562 15.83007812 16.34226563 15.83007812 15.32226562 C5.60007812 14.99226562 -4.62992188 14.66226563 -15.16992188 14.32226562 C-15.49992188 13.66226563 -15.82992187 13.00226563 -16.16992188 12.32226562 C-15.02539062 10.00976562 -15.02539062 10.00976562 -13.35742188 7.32226562 C-12.81472656 6.43539062 -12.27203125 5.54851562 -11.71289062 4.63476562 C-8.30623623 -0.47090375 -5.80578008 0.04009013 0 0 Z M-12.16992188 12.32226562 C-1.60992188 12.32226562 8.95007813 12.32226562 19.83007812 12.32226562 C19.83007812 14.63226563 19.83007812 16.94226563 19.83007812 19.32226562 C17.90698922 21.24535453 14.35937328 20.57548401 11.73242188 20.63867188 C11.02356339 20.65945297 10.3147049 20.68023407 9.58436584 20.7016449 C7.31220508 20.7672116 5.03992548 20.82605793 2.76757812 20.88476562 C1.23045629 20.92794411 -0.30665338 20.97155818 -1.84375 21.015625 C-5.61902044 21.12372296 -9.39437654 21.222742 -13.16992188 21.32226562 C-13.16992188 27.26226562 -13.16992188 33.20226562 -13.16992188 39.32226562 C-10.52992188 39.32226562 -7.88992188 39.32226562 -5.16992188 39.32226562 C-4.67492187 34.86726563 -4.67492187 34.86726563 -4.16992188 30.32226562 C7.81795092 29.23000725 7.81795092 29.23000725 12.83007812 30.32226562 C15.32847636 32.46554036 16.57272673 34.48392312 18.20507812 37.31835938 C19.69342394 39.57531711 19.69342394 39.57531711 22.45507812 39.91992188 C24.97019707 39.88848289 27.34918707 39.72659596 29.83007812 39.32226562 C27.77204325 35.72070459 25.58471929 32.43234436 22.83007812 29.32226562 C22.17007813 29.32226562 21.51007812 29.32226562 20.83007812 29.32226562 C22.677282 27.47506175 24.43130719 25.86085728 26.51757812 24.25976562 C29.43197583 20.55769286 29.49548421 18.29806255 29.25585938 13.69726562 C28.64870227 10.31055441 27.38081838 8.58959029 24.83007812 6.32226562 C19.49119468 2.97023888 12.98269769 3.78930773 6.89257812 3.69726562 C4.97928711 3.61025391 4.97928711 3.61025391 3.02734375 3.52148438 C1.79822266 3.50472656 0.56910156 3.48796875 -0.69726562 3.47070312 C-1.81866943 3.44153809 -2.94007324 3.41237305 -4.09545898 3.38232422 C-8.38956551 4.32758655 -8.38956551 4.32758655 -12.16992188 12.32226562 Z " fill="#ADA896" transform="translate(529.169921875,158.677734375)"/>
<path d="M0 0 C1.5077167 0.00063221 3.01552712 0.02316954 4.52270508 0.06347656 C5.31751785 0.06913635 6.11233063 0.07479614 6.93122864 0.08062744 C9.46884498 0.10301153 12.00504713 0.15320894 14.54223633 0.20410156 C16.26291905 0.22416406 17.98362392 0.24241527 19.7043457 0.25878906 C23.92168715 0.30288262 28.13797201 0.37192191 32.35473633 0.45410156 C31.03671267 4.10401322 29.76259625 6.24362167 27.35473633 9.45410156 C21.41473633 9.94910156 21.41473633 9.94910156 15.35473633 10.45410156 C15.02473633 19.03410156 14.69473633 27.61410156 14.35473633 36.45410156 C11.38473633 36.45410156 8.41473633 36.45410156 5.35473633 36.45410156 C5.35473633 27.54410156 5.35473633 18.63410156 5.35473633 9.45410156 C1.95161133 9.48503906 1.95161133 9.48503906 -1.52026367 9.51660156 C-8.39526367 9.57910156 -8.39526367 9.57910156 -10.64526367 8.45410156 C-10.97526367 9.44410156 -11.30526367 10.43410156 -11.64526367 11.45410156 C-11.97526367 10.79410156 -12.30526367 10.13410156 -12.64526367 9.45410156 C-11.65526367 8.13410156 -10.66526367 6.81410156 -9.64526367 5.45410156 C-9.64526367 6.11410156 -9.64526367 6.77410156 -9.64526367 7.45410156 C-7.92185231 5.8127574 -6.66590225 4.49339999 -5.55029297 2.36914062 C-3.64526367 0.45410156 -3.64526367 0.45410156 0 0 Z " fill="#F4AB32" transform="translate(265.645263671875,161.5458984375)"/>
<path d="M0 0 C2.97 0 5.94 0 9 0 C9 8.91 9 17.82 9 27 C17.13748444 26.96044452 17.13748444 26.96044452 25.27490234 26.90991211 C26.28504395 26.90741455 27.29518555 26.90491699 28.3359375 26.90234375 C29.89127197 26.89448853 29.89127197 26.89448853 31.47802734 26.88647461 C34 27 34 27 36 28 C34.45131341 31.48454483 32.68732032 34.27899073 30 37 C26.79199219 37.56762695 26.79199219 37.56762695 23.046875 37.48828125 C21.83870117 37.47579346 20.63052734 37.46330566 19.38574219 37.45043945 C17.85594727 37.40491943 16.32615234 37.35939941 14.75 37.3125 C7.44875 37.1578125 7.44875 37.1578125 0 37 C0 24.79 0 12.58 0 0 Z " fill="#F0A931" transform="translate(180,162)"/>
<path d="M0 0 C1.44790266 0.01508232 2.89582062 0.02876442 4.34375 0.04101562 C7.85448994 0.07372151 11.36464399 0.12530489 14.875 0.1875 C15.9921875 3.90625 15.9921875 3.90625 14.9375 6.4375 C14.4115625 7.30375 14.4115625 7.30375 13.875 8.1875 C13.215 8.1875 12.555 8.1875 11.875 8.1875 C11.215 10.1675 10.555 12.1475 9.875 14.1875 C8.225 14.5175 6.575 14.8475 4.875 15.1875 C6.855 15.5175 8.835 15.8475 10.875 16.1875 C10.875 16.5175 10.875 16.8475 10.875 17.1875 C1.305 16.8575 -8.265 16.5275 -18.125 16.1875 C-17.795 14.8675 -17.465 13.5475 -17.125 12.1875 C-16.39385986 12.19910156 -15.66271973 12.21070313 -14.90942383 12.22265625 C-11.58433517 12.25220087 -8.26253202 12.22047552 -4.9375 12.1875 C-3.21176758 12.21650391 -3.21176758 12.21650391 -1.45117188 12.24609375 C4.720802 12.33480729 4.720802 12.33480729 9.79150391 9.33984375 C11.0502687 7.32582007 12.04188666 5.40829244 12.875 3.1875 C8.26631877 3.25653677 3.65853105 3.34457886 -0.94946289 3.44995117 C-2.51576801 3.48312532 -4.08219051 3.51118058 -5.64868164 3.53393555 C-7.90561763 3.56762116 -10.16148526 3.61994049 -12.41796875 3.67578125 C-13.11399704 3.68217117 -13.81002533 3.6885611 -14.52714539 3.69514465 C-18.87462132 3.8254698 -21.63898679 4.56944451 -25.125 7.1875 C-27.69306792 10.61159056 -27.41661921 14.03192619 -27.125 18.1875 C-26.2275173 21.02128132 -26.2275173 21.02128132 -25.125 23.1875 C-18.62741453 24.10799128 -12.17954003 24.48764636 -5.625 24.75 C-4.61179687 24.79318359 -3.59859375 24.83636719 -2.5546875 24.88085938 C-0.0782321 24.98599192 2.39830749 25.08813837 4.875 25.1875 C4.38 27.6625 4.38 27.6625 3.875 30.1875 C-5.035 30.1875 -13.945 30.1875 -23.125 30.1875 C-24.79405241 33.52560482 -25.9991386 36.64907845 -27.125 40.1875 C-22.69552938 40.09337805 -18.26655688 39.98715977 -13.83764648 39.87011719 C-12.33349377 39.83202511 -10.82925608 39.79713908 -9.32495117 39.765625 C-7.15252477 39.71954105 -4.98067345 39.66162346 -2.80859375 39.6015625 C-1.50462646 39.5701416 -0.20065918 39.5387207 1.14282227 39.50634766 C5.03198415 39.17408852 8.17754085 38.38022876 11.875 37.1875 C13.00980527 33.57756828 12.97515767 30.2032673 12.9375 26.4375 C12.92847656 25.26703125 12.91945313 24.0965625 12.91015625 22.890625 C12.89855469 21.99859375 12.88695312 21.1065625 12.875 20.1875 C13.865 20.5175 14.855 20.8475 15.875 21.1875 C17.07527434 27.43471102 17.30109282 32.60861322 13.875 38.1875 C8.58407647 42.39310588 3.12671784 42.32902347 -3.390625 42.28515625 C-4.18402283 42.2837413 -4.97742065 42.28232635 -5.79486084 42.28086853 C-8.32161272 42.27528415 -10.84827504 42.26273454 -13.375 42.25 C-15.09114455 42.24498298 -16.80729049 42.24042043 -18.5234375 42.23632812 C-22.72399269 42.22531984 -26.92448117 42.20806596 -31.125 42.1875 C-31.52753491 36.85287809 -29.85611785 34.13203739 -26.52685547 30.08642578 C-21.85469606 26.39257989 -16.40532962 26.99086652 -10.6875 27.125 C-8.87475586 27.11436523 -8.87475586 27.11436523 -7.02539062 27.10351562 C-4.05618815 27.09177965 -1.0933082 27.12094315 1.875 27.1875 C0.77043457 27.157771 0.77043457 27.157771 -0.35644531 27.12744141 C-3.69632056 27.03212172 -7.03557639 26.92247004 -10.375 26.8125 C-11.53386719 26.7815625 -12.69273437 26.750625 -13.88671875 26.71875 C-15.55927734 26.66074219 -15.55927734 26.66074219 -17.265625 26.6015625 C-18.29204102 26.5701416 -19.31845703 26.5387207 -20.37597656 26.50634766 C-24.22738461 26.05963905 -26.32735709 25.0990919 -28.875 22.1875 C-31.20085364 16.60545127 -30.98116273 11.32790682 -28.75 5.75 C-21.283447 -1.53877793 -9.72023669 -0.1774825 0 0 Z " fill="#C7A263" transform="translate(340.125,158.8125)"/>
<path d="M0 0 C4.29 0 8.58 0 13 0 C13 9.24 13 18.48 13 28 C21.25 28 29.5 28 38 28 C37.98839844 26.13472656 37.97679687 24.26945312 37.96484375 22.34765625 C37.95546775 19.91927183 37.94636735 17.49088633 37.9375 15.0625 C37.92912109 13.83080078 37.92074219 12.59910156 37.91210938 11.33007812 C37.90888672 10.16025391 37.90566406 8.99042969 37.90234375 7.78515625 C37.89710693 6.70113525 37.89187012 5.61711426 37.88647461 4.50024414 C38 2 38 2 39 1 C41.8116338 0.91138008 44.59858255 0.88477645 47.41015625 0.90234375 C48.25219101 0.9037587 49.09422577 0.90517365 49.96177673 0.90663147 C52.66205335 0.91224737 55.36224828 0.92480252 58.0625 0.9375 C59.88867068 0.94251295 61.71484266 0.94707621 63.54101562 0.95117188 C68.02737542 0.96222196 72.51367384 0.97949721 77 1 C76.67 2.32 76.34 3.64 76 5 C76 4.34 76 3.68 76 3 C64.12 3 52.24 3 40 3 C40 15.21 40 27.42 40 40 C50.23 40 60.46 40 71 40 C71 40.33 71 40.66 71 41 C60.11 41 49.22 41 38 41 C38 37.7 38 34.4 38 31 C29.09 30.67 20.18 30.34 11 30 C11 21.09 11 12.18 11 3 C8.03 3 5.06 3 2 3 C2 15.21 2 27.42 2 40 C11.57 40 21.14 40 31 40 C31.495 39.01 31.495 39.01 32 38 C31.67 39.32 31.34 40.64 31 42 C26.60343827 42.02465504 22.2069128 42.04283842 17.81030273 42.05493164 C16.31355082 42.05997121 14.81680384 42.06680287 13.32006836 42.07543945 C11.17300193 42.08752159 9.02600038 42.09323191 6.87890625 42.09765625 C4.93866577 42.10551147 4.93866577 42.10551147 2.95922852 42.11352539 C0 42 0 42 -1 41 C-1.10110353 38.0546443 -1.13969279 35.1332244 -1.1328125 32.1875 C-1.13376923 31.30344482 -1.13472595 30.41938965 -1.13571167 29.50854492 C-1.13639351 27.63557871 -1.13453893 25.76261014 -1.13037109 23.88964844 C-1.12502289 21.01231612 -1.13031593 18.13513992 -1.13671875 15.2578125 C-1.13605797 13.44270799 -1.13477681 11.62760357 -1.1328125 9.8125 C-1.13483673 8.94584717 -1.13686096 8.07919434 -1.13894653 7.1862793 C-1.11495009 1.11495009 -1.11495009 1.11495009 0 0 Z " fill="#BB8C3E" transform="translate(178,159)"/>
<path d="M0 0 C0.98005415 2.57563687 1.13825368 3.66281726 0.07543945 6.25488281 C-0.40707275 7.06280273 -0.88958496 7.87072266 -1.38671875 8.703125 C-2.1765918 10.05083984 -2.1765918 10.05083984 -2.98242188 11.42578125 C-3.54509766 12.35777344 -4.10777344 13.28976563 -4.6875 14.25 C-5.77673629 16.08735943 -6.86400829 17.9258849 -7.94921875 19.765625 C-8.43737061 20.57805664 -8.92552246 21.39048828 -9.4284668 22.22753906 C-11.42592105 25.75139963 -13.217318 29.36384601 -15 33 C-13.81970215 32.95286865 -12.6394043 32.9057373 -11.42333984 32.85717773 C-7.02943745 32.69384395 -2.63580058 32.59081009 1.76025391 32.50561523 C3.65980187 32.46044957 5.55903854 32.39909831 7.45751953 32.32104492 C23.28016649 31.68697866 23.28016649 31.68697866 27.54418945 34.94238281 C29.09405469 37.26800418 30.07489044 39.37363206 31 42 C31.639375 42.94875 32.27875 43.8975 32.9375 44.875 C33.288125 45.57625 33.63875 46.2775 34 47 C33.67 47.99 33.34 48.98 33 50 C7.59 50 -17.82 50 -44 50 C-43.67 48.68 -43.34 47.36 -43 46 C-43 46.99 -43 47.98 -43 49 C-40.83333333 48.16666667 -40.83333333 48.16666667 -40 46 C-17.23 46 5.54 46 29 46 C24.31265666 36.7615275 24.31265666 36.7615275 18.37158203 35.88647461 C16.58410254 35.8462956 14.79509118 35.85405095 13.0078125 35.90234375 C11.58890213 35.88815147 11.58890213 35.88815147 10.1413269 35.87367249 C7.13427586 35.85315242 4.13174573 35.89442962 1.125 35.9375 C-0.91928106 35.93442419 -2.96356031 35.92730712 -5.0078125 35.91601562 C-10.00639822 35.89720488 -15.00184658 35.933793 -20 36 C-19.34624672 32.43656878 -18.59633885 29.98566845 -16.625 26.9375 C-12.71632396 20.68361833 -9.25772146 14.19520845 -5.78369141 7.69311523 C-5.32397949 6.84434814 -4.86426758 5.99558105 -4.390625 5.12109375 C-3.97844727 4.3520874 -3.56626953 3.58308105 -3.14160156 2.79077148 C-2 1 -2 1 0 0 Z " fill="#B5B5B5" transform="translate(104,176)"/>
<path d="M0 0 C1.07878418 0.01047363 2.15756836 0.02094727 3.26904297 0.03173828 C5.01894531 0.04140625 5.01894531 0.04140625 6.80419922 0.05126953 C8.02751953 0.06802734 9.25083984 0.08478516 10.51123047 0.10205078 C11.74228516 0.11107422 12.97333984 0.12009766 14.24169922 0.12939453 C17.29006862 0.1530253 20.33805429 0.18597024 23.38623047 0.22705078 C23.38623047 0.88705078 23.38623047 1.54705078 23.38623047 2.22705078 C11.01123047 2.72205078 11.01123047 2.72205078 -1.61376953 3.22705078 C-2.27376953 4.87705078 -2.93376953 6.52705078 -3.61376953 8.22705078 C-4.27376953 8.88705078 -4.93376953 9.54705078 -5.61376953 10.22705078 C1.31623047 10.72205078 1.31623047 10.72205078 8.38623047 11.22705078 C8.38623047 20.13705078 8.38623047 29.04705078 8.38623047 38.22705078 C11.02623047 38.22705078 13.66623047 38.22705078 16.38623047 38.22705078 C16.38623047 29.31705078 16.38623047 20.40705078 16.38623047 11.22705078 C22.32623047 10.73205078 22.32623047 10.73205078 28.38623047 10.22705078 C29.04623047 9.23705078 29.70623047 8.24705078 30.38623047 7.22705078 C31.04623047 7.22705078 31.70623047 7.22705078 32.38623047 7.22705078 C32.38623047 8.21705078 32.38623047 9.20705078 32.38623047 10.22705078 C33.04623047 10.22705078 33.70623047 10.22705078 34.38623047 10.22705078 C34.05623047 15.50705078 33.72623047 20.78705078 33.38623047 26.22705078 C32.72623047 26.22705078 32.06623047 26.22705078 31.38623047 26.22705078 C31.38623047 21.93705078 31.38623047 17.64705078 31.38623047 13.22705078 C27.42623047 13.22705078 23.46623047 13.22705078 19.38623047 13.22705078 C19.39783203 15.16451172 19.40943359 17.10197266 19.42138672 19.09814453 C19.43076268 21.62027899 19.43986309 24.14241448 19.44873047 26.66455078 C19.45710938 27.94394531 19.46548828 29.22333984 19.47412109 30.54150391 C19.47895508 32.36391602 19.47895508 32.36391602 19.48388672 34.22314453 C19.49174194 35.91201782 19.49174194 35.91201782 19.49975586 37.63500977 C19.38623047 40.22705078 19.38623047 40.22705078 18.38623047 41.22705078 C16.38823475 41.32578894 14.38665889 41.35676877 12.38623047 41.35205078 C11.29310547 41.35462891 10.19998047 41.35720703 9.07373047 41.35986328 C6.38623047 41.22705078 6.38623047 41.22705078 5.38623047 40.22705078 C5.29865044 38.22740096 5.27926471 36.22468968 5.28857422 34.22314453 C5.29179687 33.00820312 5.29501953 31.79326172 5.29833984 30.54150391 C5.30671875 29.26210937 5.31509766 27.98271484 5.32373047 26.66455078 C5.32824219 25.38128906 5.33275391 24.09802734 5.33740234 22.77587891 C5.34923492 19.59291658 5.36717102 16.40997804 5.38623047 13.22705078 C0.43623047 13.22705078 -4.51376953 13.22705078 -9.61376953 13.22705078 C-9.94376953 12.56705078 -10.27376953 11.90705078 -10.61376953 11.22705078 C-9.65831587 9.76682915 -8.69930275 8.3089361 -7.73876953 6.85205078 C-7.20509766 6.03994141 -6.67142578 5.22783203 -6.12158203 4.39111328 C-3.25934079 0.28312973 -3.25934079 0.28312973 0 0 Z " fill="#ACA792" transform="translate(382.61376953125,159.77294921875)"/>
<path d="M0 0 C1.09445938 0.00212242 1.09445938 0.00212242 2.21102905 0.00428772 C4.54437335 0.00989094 6.87762214 0.0224439 9.2109375 0.03515625 C10.79166528 0.04017084 12.37239457 0.04473382 13.953125 0.04882812 C17.83076604 0.05986141 21.70833557 0.07712814 25.5859375 0.09765625 C24.93924336 1.44079024 24.26690172 2.77156803 23.5859375 4.09765625 C23.19108154 4.99057373 22.79622559 5.88349121 22.3894043 6.8034668 C20.5859375 9.09765625 20.5859375 9.09765625 17.49145508 9.75708008 C15.62976685 9.78064575 15.62976685 9.78064575 13.73046875 9.8046875 C13.06883224 9.81980881 12.40719574 9.83493011 11.72550964 9.85050964 C9.61614027 9.89343408 7.50820032 9.90222752 5.3984375 9.91015625 C3.96675875 9.93329743 2.53511408 9.95866201 1.10351562 9.98632812 C-2.40231573 10.04922241 -5.90766903 10.08152399 -9.4140625 10.09765625 C-9.4140625 11.74765625 -9.4140625 13.39765625 -9.4140625 15.09765625 C-11.8890625 14.10765625 -11.8890625 14.10765625 -14.4140625 13.09765625 C-14.7265625 9.91015625 -14.7265625 9.91015625 -14.4140625 6.09765625 C-9.83393872 0.55329588 -6.86476941 -0.04979681 0 0 Z " fill="#F3AA2F" transform="translate(327.4140625,161.90234375)"/>
<path d="M0 0 C16.335 0.495 16.335 0.495 33 1 C33.495 4.465 33.495 4.465 34 8 C32 10 32 10 28.83544922 10.22705078 C27.49182037 10.22673389 26.1481659 10.21542181 24.8046875 10.1953125 C24.09724396 10.1924826 23.38980042 10.18965271 22.66091919 10.18673706 C20.3987749 10.17553137 18.13702485 10.15042679 15.875 10.125 C14.34245363 10.11497067 12.80990106 10.10584474 11.27734375 10.09765625 C7.51795465 10.0772912 3.75941922 10.03814518 0 10 C0 15.94 0 21.88 0 28 C2.64 28 5.28 28 8 28 C7.98839844 27.36191406 7.97679687 26.72382813 7.96484375 26.06640625 C7.95582031 25.24011719 7.94679688 24.41382813 7.9375 23.5625 C7.92589844 22.73878906 7.91429687 21.91507813 7.90234375 21.06640625 C8 19 8 19 9 18 C11.69654854 17.92680379 14.36691458 17.90757463 17.0625 17.9375 C17.82111328 17.94201172 18.57972656 17.94652344 19.36132812 17.95117188 C21.24091871 17.9629932 23.12046899 17.98092922 25 18 C25 18.66 25 19.32 25 20 C21.04 20.33 17.08 20.66 13 21 C12.855625 22.464375 12.71125 23.92875 12.5625 25.4375 C12.125 29.875 12.125 29.875 11 31 C6.66469082 31.14393457 2.33842269 31.04212061 -2 31 C-2 23.41 -2 15.82 -2 8 C13.345 7.505 13.345 7.505 29 7 C29 6.01 29 5.02 29 4 C29 3.34 29 2.68 29 2 C19.1 2 9.2 2 -1 2 C-0.67 1.34 -0.34 0.68 0 0 Z " fill="#A09B88" transform="translate(516,170)"/>
<path d="M0 0 C1.093125 0.00257813 2.18625 0.00515625 3.3125 0.0078125 C4.405625 0.00523437 5.49875 0.00265625 6.625 0 C9.3125 0.1328125 9.3125 0.1328125 10.3125 1.1328125 C10.41379999 4.16287395 10.45109737 7.16536538 10.4375 10.1953125 C10.44330078 11.44731445 10.44330078 11.44731445 10.44921875 12.72460938 C10.44107378 17.94960655 10.06568577 22.96213239 9.3125 28.1328125 C8.9825 28.1328125 8.6525 28.1328125 8.3125 28.1328125 C8.3125 20.2128125 8.3125 12.2928125 8.3125 4.1328125 C5.3425 4.1328125 2.3725 4.1328125 -0.6875 4.1328125 C-0.66429687 5.59074219 -0.64109375 7.04867187 -0.6171875 8.55078125 C-0.59842485 10.4739532 -0.58022518 12.39713071 -0.5625 14.3203125 C-0.54574219 15.28001953 -0.52898437 16.23972656 -0.51171875 17.22851562 C-0.50527344 18.15986328 -0.49882812 19.09121094 -0.4921875 20.05078125 C-0.48171387 20.90438232 -0.47124023 21.7579834 -0.46044922 22.63745117 C-0.72259515 25.51851951 -1.3283274 27.57755702 -2.6875 30.1328125 C-8.71365125 32.50022906 -14.37250312 32.46454654 -20.6875 31.1328125 C-22.984375 30.0859375 -22.984375 30.0859375 -24.6875 29.1328125 C-24.74130578 26.34089045 -24.78107669 23.5499984 -24.8125 20.7578125 C-24.82925781 19.96375 -24.84601563 19.1696875 -24.86328125 18.3515625 C-24.88085473 16.27789235 -24.79085168 14.20398009 -24.6875 12.1328125 C-24.0275 11.4728125 -23.3675 10.8128125 -22.6875 10.1328125 C-22.3575 15.7428125 -22.0275 21.3528125 -21.6875 27.1328125 C-18.62051363 28.15514129 -16.40085122 28.2987174 -13.1875 28.3203125 C-12.2284375 28.33449219 -11.269375 28.34867188 -10.28125 28.36328125 C-7.45003861 28.32036361 -7.45003861 28.32036361 -4.6875 26.1328125 C-4.19379296 23.53652406 -4.19379296 23.53652406 -4.2109375 20.50390625 C-4.18 19.38693359 -4.1490625 18.26996094 -4.1171875 17.11914062 C-4.09914063 15.94802734 -4.08109375 14.77691406 -4.0625 13.5703125 C-4.01172893 11.25642117 -3.95724908 8.94260718 -3.8984375 6.62890625 C-3.87209229 5.08481079 -3.87209229 5.08481079 -3.84521484 3.50952148 C-3.620527 0.12355221 -3.41930069 0.16897707 0 0 Z " fill="#9F9783" transform="translate(501.6875,158.8671875)"/>
<path d="M0 0 C0.33 0.66 0.66 1.32 1 2 C1.66 2 2.32 2 3 2 C1.43767738 6.37117925 -0.82407637 10.19293182 -3.25 14.125 C-7.40780547 20.95196209 -11.4232354 27.84647079 -15 35 C-15.66 35 -16.32 35 -17 35 C-17.495 37.475 -17.495 37.475 -18 40 C-20.64 44.29 -23.28 48.58 -26 53 C-1.91 53 22.18 53 47 53 C47 53.33 47 53.66 47 54 C22.25 54 -2.5 54 -28 54 C-28 49.06615432 -27.8170627 48.07704863 -25.4296875 44.140625 C-24.86910645 43.20089844 -24.30852539 42.26117188 -23.73095703 41.29296875 C-22.8122583 39.78669922 -22.8122583 39.78669922 -21.875 38.25 C-20.59687268 36.11061965 -19.32090232 33.96994948 -18.046875 31.828125 C-17.38365234 30.71630859 -16.72042969 29.60449219 -16.03710938 28.45898438 C-12.62651673 22.6998732 -9.3812881 16.84730397 -6.125 11 C-5.51253418 9.90204102 -4.90006836 8.80408203 -4.26904297 7.67285156 C-2.8441306 5.11628272 -1.42101317 2.55873753 0 0 Z " fill="#757575" transform="translate(89,171)"/>
<path d="M0 0 C2.00720923 0.28674418 4.0085944 0.61866701 6 1 C6.2475 2.03125 6.495 3.0625 6.75 4.125 C7.83392653 7.93422752 9.59111586 10.83833956 12 14 C12.66 14.33 13.32 14.66 14 15 C14 15.66 14 16.32 14 17 C14.66 17 15.32 17 16 17 C16.28230469 17.85980469 16.56460938 18.71960938 16.85546875 19.60546875 C17.23316406 20.72566406 17.61085937 21.84585938 18 23 C18.34675781 24.04800781 18.69351563 25.09601563 19.05078125 26.17578125 C20.41581949 29.5693593 21.63604278 32.19361409 24 35 C28.40436375 36.33544917 32.43465365 36.35222257 37 36 C35.58509533 32.39199309 34.42761146 29.53451433 32 26.5 C29.62244627 23.52805784 28.4735174 20.49960383 27 17 C26.2575 15.948125 25.515 14.89625 24.75 13.8125 C23 11 23 11 23.390625 8.82421875 C23.59171875 8.22222656 23.7928125 7.62023437 24 7 C27.5 12.6875 27.5 12.6875 28.57836914 14.44506836 C30.46198601 17.51281463 32.35643339 20.57263178 34.27734375 23.6171875 C34.82068359 24.48404175 34.82068359 24.48404175 35.375 25.3684082 C36.39115842 26.98861116 37.41225985 28.6057108 38.43359375 30.22265625 C39.76199434 32.57799995 40.66143411 34.33456309 41 37 C38.40908146 39.59091854 32.6813242 39.20089047 29.15161133 39.36499023 C25.41116107 39.2084752 22.94650397 38.88345374 20.15283203 36.27587891 C16.79130843 31.71707252 14.42869929 26.67342504 12.14477539 21.51000977 C9.33190946 15.34258075 5.85350473 9.5661735 2 4 C-1.0109362 6.0072908 -1.63016497 6.83884224 -3 10 C-3.33 9.34 -3.66 8.68 -4 8 C-1.48571429 1.48571429 -1.48571429 1.48571429 0 0 Z " fill="#D0A460" transform="translate(125,187)"/>
<path d="M0 0 C10.56 0 21.12 0 32 0 C31.34 2.64 30.68 5.28 30 8 C29.37432129 8.01458252 28.74864258 8.02916504 28.10400391 8.04418945 C25.27703598 8.11852804 22.45126792 8.21523234 19.625 8.3125 C18.64015625 8.33505859 17.6553125 8.35761719 16.640625 8.38085938 C15.69960937 8.41630859 14.75859375 8.45175781 13.7890625 8.48828125 C12.91975098 8.51446533 12.05043945 8.54064941 11.15478516 8.56762695 C8.61399973 8.81345218 8.61399973 8.81345218 7 12 C6.34 11.67 5.68 11.34 5 11 C5 10.34 5 9.68 5 9 C4.01 9 3.02 9 2 9 C2.66 7.35 3.32 5.7 4 4 C2.68 3.34 1.36 2.68 0 2 C0 1.34 0 0.68 0 0 Z " fill="#F5AB2D" transform="translate(219,163)"/>
<path d="M0 0 C3.26991663 0.59787867 3.88916026 0.87025582 6.17578125 3.546875 C6.88089844 4.60390625 7.58601563 5.6609375 8.3125 6.75 C9.03050781 7.79671875 9.74851563 8.8434375 10.48828125 9.921875 C12 13 12 13 11.73046875 15.890625 C11.48941406 16.58671875 11.24835938 17.2828125 11 18 C10.731875 17.4225 10.46375 16.845 10.1875 16.25 C9.04946754 13.94252104 9.04946754 13.94252104 7.375 11.875 C6 10 6 10 6 8 C5.34 8 4.68 8 4 8 C4 7.01 4 6.02 4 5 C1.16867679 5.62918293 -0.54748795 6.32420898 -2.1875 8.7734375 C-3.56830599 11.50459053 -4.8083423 14.05945759 -5.421875 17.0703125 C-6.13092047 19.43699131 -7.20656185 20.33498088 -9 22 C-12.64660991 27.13675283 -15.54005181 32.77299833 -18.5078125 38.31640625 C-20.2248457 41.4043691 -22.11762445 44.33478026 -24.1171875 47.24609375 C-25.29973284 49.26822789 -25.29973284 49.26822789 -25 53 C-23.22925083 53.02705729 -21.45838289 53.04642195 -19.6875 53.0625 C-18.70136719 53.07410156 -17.71523437 53.08570313 -16.69921875 53.09765625 C-13.90036151 53.12329862 -13.90036151 53.12329862 -11 52 C-11.33 53.32 -11.66 54.64 -12 56 C-17.94 56 -23.88 56 -30 56 C-30 52.14700335 -29.94579448 51.41306216 -28.09375 48.3828125 C-27.68398926 47.7012207 -27.27422852 47.01962891 -26.85205078 46.31738281 C-26.18278564 45.23215332 -26.18278564 45.23215332 -25.5 44.125 C-24.56957688 42.58117227 -23.639898 41.03689577 -22.7109375 39.4921875 C-22.2478418 38.72745117 -21.78474609 37.96271484 -21.30761719 37.17480469 C-19.53385604 34.224718 -17.82592358 31.24276427 -16.125 28.25 C-15.18527344 26.59871094 -15.18527344 26.59871094 -14.2265625 24.9140625 C-13.8852832 24.31368164 -13.54400391 23.71330078 -13.19238281 23.09472656 C-10.63454627 18.60122993 -8.06601235 14.11383097 -5.5 9.625 C-4.44788294 7.78387344 -3.39579684 5.94272918 -2.34375 4.1015625 C-1.5625 2.734375 -0.78125 1.3671875 0 0 Z " fill="#C4A262" transform="translate(132,145)"/>
<path d="M0 0 C12.87 0 25.74 0 39 0 C39.495 1.98 39.495 1.98 40 4 C40.59683594 3.71125 41.19367188 3.4225 41.80859375 3.125 C50.58204302 -0.62946269 58.65316318 -0.39447377 68 0 C68 0.33 68 0.66 68 1 C66.02 1.33 64.04 1.66 62 2 C62 2.33 62 2.66 62 3 C60.98679687 3.09796875 59.97359375 3.1959375 58.9296875 3.296875 C57.57802945 3.44705923 56.22647183 3.59814923 54.875 3.75 C54.20984375 3.811875 53.5446875 3.87375 52.859375 3.9375 C46.58280841 4.6759196 42.71574524 7.01334761 38.625 11.75 C38.08875 12.4925 37.5525 13.235 37 14 C33.875 8.5 33.875 8.5 35 4 C25.43 4 15.86 4 6 4 C6 3.67 6 3.34 6 3 C12.6 3 19.2 3 26 3 C26 2.34 26 1.68 26 1 C17.42 1 8.84 1 0 1 C0 0.67 0 0.34 0 0 Z " fill="#B3AC9A" transform="translate(380,159)"/>
<path d="M0 0 C0.33 0 0.66 0 1 0 C1.495 7.92 1.495 7.92 2 16 C2.33 16 2.66 16 3 16 C3.42060223 23.01003709 2.77624557 27.52969304 -1.75 33.1875 C-7.32951343 37.68210804 -12.86605973 38.55743294 -19.8125 38.5 C-20.99900146 38.49250732 -20.99900146 38.49250732 -22.20947266 38.48486328 C-29.37161891 38.27183534 -35.39618667 36.79348772 -40.484375 31.4375 C-42.37336403 28.8498438 -43 27.22141192 -43 24 C-42.34 24 -41.68 24 -41 24 C-40.67 23.01 -40.34 22.02 -40 21 C-39.9175 22.27875 -39.835 23.5575 -39.75 24.875 C-39.44862836 28.04093669 -39.44862836 28.04093669 -37.4375 30.3125 C-36.633125 30.539375 -35.82875 30.76625 -35 31 C-33.88625 31.53625 -32.7725 32.0725 -31.625 32.625 C-23.82865135 35.50657727 -13.65941341 35.23397455 -6 32 C-2.67695951 29.70824793 -2.01531827 26.82285825 -1 23 C-0.62003881 19.04635967 -0.49231272 15.09408028 -0.375 11.125 C-0.33632813 10.05507812 -0.29765625 8.98515625 -0.2578125 7.8828125 C-0.16397548 5.25537592 -0.07828443 2.62793829 0 0 Z " fill="#A7A493" transform="translate(509,163)"/>
<path d="M0 0 C4.29 0 8.58 0 13 0 C13 9.24 13 18.48 13 28 C12.67 28 12.34 28 12 28 C12 19.42 12 10.84 12 2 C8.37 2 4.74 2 1 2 C1.33 14.21 1.66 26.42 2 39 C11.57 39.33 21.14 39.66 31 40 C31.495 39.01 31.495 39.01 32 38 C31.67 39.32 31.34 40.64 31 42 C26.60343827 42.02465504 22.2069128 42.04283842 17.81030273 42.05493164 C16.31355082 42.05997121 14.81680384 42.06680287 13.32006836 42.07543945 C11.17300193 42.08752159 9.02600038 42.09323191 6.87890625 42.09765625 C4.93866577 42.10551147 4.93866577 42.10551147 2.95922852 42.11352539 C0 42 0 42 -1 41 C-1.10110353 38.0546443 -1.13969279 35.1332244 -1.1328125 32.1875 C-1.13376923 31.30344482 -1.13472595 30.41938965 -1.13571167 29.50854492 C-1.13639351 27.63557871 -1.13453893 25.76261014 -1.13037109 23.88964844 C-1.12502289 21.01231612 -1.13031593 18.13513992 -1.13671875 15.2578125 C-1.13605797 13.44270799 -1.13477681 11.62760357 -1.1328125 9.8125 C-1.13483673 8.94584717 -1.13686096 8.07919434 -1.13894653 7.1862793 C-1.11495009 1.11495009 -1.11495009 1.11495009 0 0 Z " fill="#C4A573" transform="translate(178,159)"/>
<path d="M0 0 C1.98 0 3.96 0 6 0 C6 2.64 6 5.28 6 8 C6.66 8 7.32 8 8 8 C7.91327254 10.79322218 7.80644643 13.58312528 7.6875 16.375 C7.66494141 17.1690625 7.64238281 17.963125 7.61914062 18.78125 C7.52214925 20.86215581 7.27005175 22.93441332 7 25 C6.01 25.66 5.02 26.32 4 27 C3.27617533 29.05925139 3.27617533 29.05925139 3 31 C2.01 31 1.02 31 0 31 C0 20.77 0 10.54 0 0 Z " fill="#F5AB2C" transform="translate(181,163)"/>
<path d="M0 0 C0.33 0 0.66 0 1 0 C1.144375 0.78375 1.28875 1.5675 1.4375 2.375 C1.87798925 4.96421018 1.87798925 4.96421018 3 7 C-0.17318791 12.685295 -4.48294138 16.68472844 -10.87646484 18.54638672 C-19.51331477 20.39132431 -30.99249382 20.27914226 -39.0078125 16.41015625 C-42.5059607 13.93401605 -45.06987323 10.82102333 -47 7 C-47 6.01 -47 5.02 -47 4 C-46.34 4 -45.68 4 -45 4 C-44.67 3.34 -44.34 2.68 -44 2 C-43.7525 3.27875 -43.505 4.5575 -43.25 5.875 C-42.52147955 9.03352303 -42.52147955 9.03352303 -40.375 11.3125 C-39.59125 11.539375 -38.8075 11.76625 -38 12 C-36.9275 12.53625 -35.855 13.0725 -34.75 13.625 C-27.3308758 16.35836155 -16.6691242 16.35836155 -9.25 13.625 C-8.1775 13.08875 -7.105 12.5525 -6 12 C-4.948125 11.61328125 -4.948125 11.61328125 -3.875 11.21875 C-1.76984308 10.12292605 -1.76984308 10.12292605 -1.171875 7.6171875 C-1.03265625 6.71226562 -0.8934375 5.80734375 -0.75 4.875 C-0.60046875 3.96492187 -0.4509375 3.05484375 -0.296875 2.1171875 C-0.19890625 1.41851562 -0.1009375 0.71984375 0 0 Z " fill="#B0AA9B" transform="translate(461,182)"/>
<path d="M0 0 C0.98275588 2.94826763 1.13414725 4.92652504 1.125 8 C1.12886719 9.299375 1.12886719 9.299375 1.1328125 10.625 C1 13 1 13 0 16 C-3.6506876 18.78678443 -8.05801189 18.29487947 -12.4375 18.25 C-13.56381836 18.26160156 -13.56381836 18.26160156 -14.71289062 18.2734375 C-18.85041731 18.25888156 -22.32342096 18.12519019 -26 16 C-26.98275588 13.05173237 -27.13414725 11.07347496 -27.125 8 C-27.12757813 7.13375 -27.13015625 6.2675 -27.1328125 5.375 C-27 3 -27 3 -26 0 C-18.1021843 -3.3346333 -7.8978157 -3.3346333 0 0 Z M-23.875 3.25 C-25.61756759 5.96066069 -25.44921114 7.85552201 -25 11 C-22.76793569 13.84780619 -21.45007001 14.84997666 -18 16 C-9.43969079 16.72582687 -9.43969079 16.72582687 -2 13 C-0.63002255 11.84254513 -0.63002255 11.84254513 -0.6875 8.6875 C-0.73985893 5.0891962 -0.73985893 5.0891962 -2.3125 2.625 C-8.88037276 -1.3462719 -17.53834313 -0.97443792 -23.875 3.25 Z " fill="#989382" transform="translate(452,172)"/>
<path d="M0 0 C1.07878418 0.01047363 2.15756836 0.02094727 3.26904297 0.03173828 C5.01894531 0.04140625 5.01894531 0.04140625 6.80419922 0.05126953 C8.02751953 0.06802734 9.25083984 0.08478516 10.51123047 0.10205078 C11.74228516 0.11107422 12.97333984 0.12009766 14.24169922 0.12939453 C17.29006862 0.1530253 20.33805429 0.18597024 23.38623047 0.22705078 C23.38623047 0.88705078 23.38623047 1.54705078 23.38623047 2.22705078 C11.01123047 2.72205078 11.01123047 2.72205078 -1.61376953 3.22705078 C-2.27376953 4.87705078 -2.93376953 6.52705078 -3.61376953 8.22705078 C-4.27376953 8.88705078 -4.93376953 9.54705078 -5.61376953 10.22705078 C-1.32376953 10.55705078 2.96623047 10.88705078 7.38623047 11.22705078 C7.05623047 20.79705078 6.72623047 30.36705078 6.38623047 40.22705078 C6.05623047 40.22705078 5.72623047 40.22705078 5.38623047 40.22705078 C5.38623047 31.31705078 5.38623047 22.40705078 5.38623047 13.22705078 C0.43623047 13.22705078 -4.51376953 13.22705078 -9.61376953 13.22705078 C-9.94376953 12.56705078 -10.27376953 11.90705078 -10.61376953 11.22705078 C-9.65831587 9.76682915 -8.69930275 8.3089361 -7.73876953 6.85205078 C-7.20509766 6.03994141 -6.67142578 5.22783203 -6.12158203 4.39111328 C-3.25934079 0.28312973 -3.25934079 0.28312973 0 0 Z " fill="#97907D" transform="translate(382.61376953125,159.77294921875)"/>
<path d="M0 0 C10.23 0 20.46 0 31 0 C32 4 32 4 31.0625 6.25 C30.5365625 7.11625 30.5365625 7.11625 30 8 C29.34 8 28.68 8 28 8 C27.34 9.98 26.68 11.96 26 14 C24.35 14.33 22.7 14.66 21 15 C23.97 15.495 23.97 15.495 27 16 C27 16.33 27 16.66 27 17 C17.43 16.67 7.86 16.34 -2 16 C-1.67 14.68 -1.34 13.36 -1 12 C-0.26362305 12.00112793 0.47275391 12.00225586 1.23144531 12.00341797 C4.5718943 11.99130344 7.91005774 11.9336598 11.25 11.875 C12.98830078 11.87886719 12.98830078 11.87886719 14.76171875 11.8828125 C20.57071143 11.9726234 20.57071143 11.9726234 25.68945312 9.71191406 C27.51163501 7.11361767 28 5.15435491 28 2 C14.14 1.505 14.14 1.505 0 1 C0 0.67 0 0.34 0 0 Z " fill="#D8B77C" transform="translate(324,159)"/>
<path d="M0 0 C0.61875 0.78375 1.2375 1.5675 1.875 2.375 C3.89858661 4.96837647 3.89858661 4.96837647 6 7 C5.97295861 13.8324586 2.59512463 18.87991385 -0.8125 24.625 C-1.34681641 25.553125 -1.88113281 26.48125 -2.43164062 27.4375 C-5.02160992 31.88472894 -7.60610626 36.10482897 -11 40 C-11.66 39.67 -12.32 39.34 -13 39 C-11.62318472 35.29845297 -9.93082425 32.03454104 -7.890625 28.65625 C-7.30152344 27.65722656 -6.71242188 26.65820312 -6.10546875 25.62890625 C-4.86440552 23.53608172 -3.61168745 21.45012659 -2.34765625 19.37109375 C-1.76371094 18.37207031 -1.17976563 17.37304688 -0.578125 16.34375 C-0.03575195 15.43818359 0.50662109 14.53261719 1.06542969 13.59960938 C2.28422073 11.00399796 2.28422073 11.00399796 1.23144531 8.31054688 C0.82506836 7.54806641 0.41869141 6.78558594 0 6 C-0.556875 4.8553125 -0.556875 4.8553125 -1.125 3.6875 C-1.41375 3.130625 -1.7025 2.57375 -2 2 C-1.34 2 -0.68 2 0 2 C0 1.34 0 0.68 0 0 Z " fill="#9E9D9D" transform="translate(116,138)"/>
<path d="M0 0 C13.86 0.495 13.86 0.495 28 1 C29 4 29 4 27.96289062 6.67504883 C25.89475947 10.07432981 24.08742319 12.46560218 21 15 C15.10817668 16.37062573 9.50070595 16.04786378 3.5 15.6875 C1.89860589 15.63225158 0.29702835 15.58207384 -1.3046875 15.53710938 C-5.20769405 15.41656504 -9.1018112 15.2272672 -13 15 C-12.34 14.01 -11.68 13.02 -11 12 C-8.51659097 11.73272986 -6.28527932 11.65133666 -3.8046875 11.70703125 C-2.74352219 11.71339851 -2.74352219 11.71339851 -1.66091919 11.71989441 C0.60143905 11.73670453 2.86291048 11.77435872 5.125 11.8125 C6.65753923 11.82754393 8.1900924 11.84123284 9.72265625 11.85351562 C13.48211318 11.88661538 17.24090618 11.93841175 21 12 C21 11.01 21 10.02 21 9 C21.66 9 22.32 9 23 9 C23.33 7.02 23.66 5.04 24 3 C24.99 2.67 25.98 2.34 27 2 C18.09 2 9.18 2 0 2 C0 1.34 0 0.68 0 0 Z " fill="#DEBC82" transform="translate(229,186)"/>
<path d="M0 0 C13.53 0 27.06 0 41 0 C41.495 1.485 41.495 1.485 42 3 C40.85546875 5.19140625 40.85546875 5.19140625 39.1875 7.5625 C38.64480469 8.34753906 38.10210937 9.13257813 37.54296875 9.94140625 C34.56343908 13.91662685 34.56343908 13.91662685 31.84521484 14.31884766 C30.97590332 14.35026855 30.1065918 14.38168945 29.2109375 14.4140625 C28.26992187 14.45273438 27.32890625 14.49140625 26.359375 14.53125 C25.37453125 14.5621875 24.3896875 14.593125 23.375 14.625 C21.88613281 14.68300781 21.88613281 14.68300781 20.3671875 14.7421875 C17.91164615 14.8366314 15.4561159 14.92219875 13 15 C12.67 14.01 12.34 13.02 12 12 C12.92280762 12.00169189 12.92280762 12.00169189 13.86425781 12.00341797 C16.66061282 11.99128742 19.45424937 11.93362649 22.25 11.875 C23.21808594 11.87757813 24.18617188 11.88015625 25.18359375 11.8828125 C27.91713209 11.80740455 30.34980794 11.68118747 33 11 C35.60412278 8.11933907 35.60412278 8.11933907 37 5 C37.66 5 38.32 5 39 5 C39 3.68 39 2.36 39 1 C26.13 1.33 13.26 1.66 0 2 C0 1.34 0 0.68 0 0 Z " fill="#DDBD8B" transform="translate(216,159)"/>
<path d="M0 0 C1.79244141 0.01740234 1.79244141 0.01740234 3.62109375 0.03515625 C5.41740234 0.04869141 5.41740234 0.04869141 7.25 0.0625 C8.17683594 0.07410156 9.10367187 0.08570313 10.05859375 0.09765625 C10.11254853 1.72229467 10.1513657 3.34744166 10.18359375 4.97265625 C10.20679688 5.87757813 10.23 6.7825 10.25390625 7.71484375 C10.05859375 10.09765625 10.05859375 10.09765625 8.05859375 12.09765625 C8.05859375 9.45765625 8.05859375 6.81765625 8.05859375 4.09765625 C5.08859375 4.09765625 2.11859375 4.09765625 -0.94140625 4.09765625 C-0.94140625 11.02765625 -0.94140625 17.95765625 -0.94140625 25.09765625 C-1.27140625 25.09765625 -1.60140625 25.09765625 -1.94140625 25.09765625 C-2.27140625 22.45765625 -2.60140625 19.81765625 -2.94140625 17.09765625 C-3.93140625 16.76765625 -4.92140625 16.43765625 -5.94140625 16.09765625 C-5.709375 15.28361328 -5.709375 15.28361328 -5.47265625 14.453125 C-4.65452704 10.82568445 -4.49725213 7.16307845 -4.22265625 3.4609375 C-3.80627184 -0.0378482 -3.60225517 0.11959679 0 0 Z " fill="#B6AF9D" transform="translate(468.94140625,158.90234375)"/>
<path d="M0 0 C16.335 0.495 16.335 0.495 33 1 C33.495 4.465 33.495 4.465 34 8 C31.16992998 10.83007002 28.38047148 10.35245926 24.5859375 10.4140625 C23.49147812 10.44311172 23.49147812 10.44311172 22.37490845 10.4727478 C20.04172498 10.53258422 17.70849227 10.57894423 15.375 10.625 C13.79424918 10.66317614 12.21351924 10.70222765 10.6328125 10.7421875 C6.7553777 10.83828878 2.87784551 10.92230412 -1 11 C-1 10.34 -1 9.68 -1 9 C-0.16750732 8.98541748 0.66498535 8.97083496 1.52270508 8.95581055 C4.61489653 8.8947137 7.70642082 8.82055444 10.7980957 8.73754883 C12.7929063 8.68798681 14.78807257 8.65348867 16.78320312 8.61914062 C18.66362305 8.5659668 18.66362305 8.5659668 20.58203125 8.51171875 C21.73936768 8.48553467 22.8967041 8.45935059 24.08911133 8.43237305 C27.20561809 7.96945822 28.14546972 7.47751402 30 5 C29.67 4.01 29.34 3.02 29 2 C19.1 2 9.2 2 -1 2 C-0.67 1.34 -0.34 0.68 0 0 Z " fill="#8D8774" transform="translate(516,170)"/>
<path d="M0 0 C0.66 0 1.32 0 2 0 C1.17799095 4.49503684 -1.27364115 7.78237316 -3.72265625 11.5625 C-5.30944407 14.13184697 -5.30944407 14.13184697 -5 18 C-3.22925083 18.02705729 -1.45838289 18.04642195 0.3125 18.0625 C1.29863281 18.07410156 2.28476563 18.08570313 3.30078125 18.09765625 C6.09963849 18.12329862 6.09963849 18.12329862 9 17 C8.67 18.32 8.34 19.64 8 21 C2.06 21 -3.88 21 -10 21 C-10 17.03082775 -9.77754722 16.11490581 -7.8828125 12.890625 C-7.44066406 12.13652344 -6.99851562 11.38242188 -6.54296875 10.60546875 C-6.07503906 9.82816406 -5.60710937 9.05085937 -5.125 8.25 C-4.66480469 7.45722656 -4.20460938 6.66445312 -3.73046875 5.84765625 C-1.15420825 1.50908422 -1.15420825 1.50908422 0 0 Z " fill="#C7A154" transform="translate(112,180)"/>
<path d="M0 0 C2.97 0 5.94 0 9 0 C8.67 2.31 8.34 4.62 8 7 C7.34 7 6.68 7 6 7 C5.67 8.98 5.34 10.96 5 13 C3.35 13.33 1.7 13.66 0 14 C0 9.38 0 4.76 0 0 Z " fill="#EBA736" transform="translate(300,162)"/>
<path d="M0 0 C0.33 0.66 0.66 1.32 1 2 C9.58 2 18.16 2 27 2 C27 2.33 27 2.66 27 3 C26.26362305 2.99887207 25.52724609 2.99774414 24.76855469 2.99658203 C21.4281057 3.00869656 18.08994226 3.0663402 14.75 3.125 C13.01169922 3.12113281 13.01169922 3.12113281 11.23828125 3.1171875 C5.41710615 2.98761292 5.41710615 2.98761292 0.38085938 5.35839844 C-0.83784966 7.15650995 -0.83784966 7.15650995 -2 10 C-2.99 10.495 -2.99 10.495 -4 11 C5.57 11.33 15.14 11.66 25 12 C25 12.33 25 12.66 25 13 C14.77 13 4.54 13 -6 13 C-6.33 12.34 -6.66 11.68 -7 11 C-5.8203125 8.65234375 -5.8203125 8.65234375 -4.125 5.9375 C-3.57070313 5.03902344 -3.01640625 4.14054688 -2.4453125 3.21484375 C-1 1 -1 1 0 0 Z " fill="#C3BBAE" transform="translate(520,160)"/>
<path d="M0 0 C1.97909398 -0.02686553 3.95828971 -0.04633375 5.9375 -0.0625 C7.03964844 -0.07410156 8.14179688 -0.08570313 9.27734375 -0.09765625 C12 0 12 0 13 1 C13.10129999 4.03006145 13.13859737 7.03255288 13.125 10.0625 C13.12886719 10.89716797 13.13273438 11.73183594 13.13671875 12.59179688 C13.12857378 17.81679405 12.75318577 22.82931989 12 28 C11.67 28 11.34 28 11 28 C11 20.08 11 12.16 11 4 C7.7 4.33 4.4 4.66 1 5 C1 4.34 1 3.68 1 3 C0.34 3 -0.32 3 -1 3 C-0.67 2.01 -0.34 1.02 0 0 Z " fill="#A49A86" transform="translate(499,159)"/>
<path d="M0 0 C0.33 0 0.66 0 1 0 C1.144375 0.78375 1.28875 1.5675 1.4375 2.375 C1.87798925 4.96421018 1.87798925 4.96421018 3 7 C-0.23403483 12.79431241 -4.52975158 16.52808894 -10.921875 18.6328125 C-13.40005556 19.07068651 -15.73467971 19.09559632 -18.25 19.0625 C-19.14203125 19.05347656 -20.0340625 19.04445312 -20.953125 19.03515625 C-21.62859375 19.02355469 -22.3040625 19.01195312 -23 19 C-23 18.34 -23 17.68 -23 17 C-21.2984375 16.87625 -21.2984375 16.87625 -19.5625 16.75 C-14.58050372 16.13941786 -10.45650997 14.21987809 -6 12 C-5.278125 11.73316406 -4.55625 11.46632812 -3.8125 11.19140625 C-1.76734317 10.110528 -1.76734317 10.110528 -1.171875 7.6171875 C-1.03265625 6.71226562 -0.8934375 5.80734375 -0.75 4.875 C-0.60046875 3.96492187 -0.4509375 3.05484375 -0.296875 2.1171875 C-0.19890625 1.41851562 -0.1009375 0.71984375 0 0 Z " fill="#AFA99B" transform="translate(461,182)"/>
<path d="M0 0 C0.33 0 0.66 0 1 0 C1.0825 1.27875 1.165 2.5575 1.25 3.875 C1.55137164 7.04093669 1.55137164 7.04093669 3.5625 9.3125 C4.366875 9.539375 5.17125 9.76625 6 10 C7.051875 10.53625 8.10375 11.0725 9.1875 11.625 C15.97964762 14.20939269 23.86033325 13.21905796 31 13 C28.41073669 15.58926331 26.97294721 15.37398043 23.375 15.625 C22.37210937 15.69976562 21.36921875 15.77453125 20.3359375 15.8515625 C19.17964844 15.92503906 19.17964844 15.92503906 18 16 C18 16.33 18 16.66 18 17 C11.20688242 16.8270271 6.26027077 15.42060313 1 11 C-1.30027934 7.98088336 -2 6.79198146 -2 3 C-1.34 3 -0.68 3 0 3 C0 2.01 0 1.02 0 0 Z " fill="#C0BCAD" transform="translate(468,184)"/>
<path d="M0 0 C1.32 0.66 2.64 1.32 4 2 C3.67 3.98 3.34 5.96 3 8 C-0.01031744 8.93423645 -0.86650268 9.04449911 -4 8 C-4.33 9.65 -4.66 11.3 -5 13 C-5.66 12.67 -6.32 12.34 -7 12 C-6.67 10.68 -6.34 9.36 -6 8 C-13.26 8 -20.52 8 -28 8 C-28 7.67 -28 7.34 -28 7 C-26.38931641 6.92652344 -26.38931641 6.92652344 -24.74609375 6.8515625 C-23.30987358 6.77646602 -21.87367681 6.70092124 -20.4375 6.625 C-19.73302734 6.5940625 -19.02855469 6.563125 -18.30273438 6.53125 C-11.78882401 6.17103376 -6.01175572 4.55044182 0 2 C0 1.34 0 0.68 0 0 Z " fill="#ECAD40" transform="translate(351,176)"/>
<path d="M0 0 C0.33 0.99 0.66 1.98 1 3 C5.1444526 2.88093074 9.28870716 2.75663609 13.43286133 2.62768555 C14.84004557 2.58461342 16.24727282 2.54292136 17.65454102 2.50268555 C19.68779408 2.4443043 21.72083617 2.38081315 23.75390625 2.31640625 C24.97408447 2.27974854 26.1942627 2.24309082 27.45141602 2.20532227 C31.01401411 1.99918914 34.47640588 1.55531685 38 1 C33.27569884 4.74685954 29.58763277 5.14199881 23.70703125 5.09765625 C22.64798836 5.09553383 22.64798836 5.09553383 21.56755066 5.09336853 C19.31582374 5.08777764 17.06419679 5.07522688 14.8125 5.0625 C13.28450665 5.05748382 11.75651173 5.05292112 10.22851562 5.04882812 C6.48563865 5.0378112 2.74283627 5.02055287 -1 5 C-0.67 3.35 -0.34 1.7 0 0 Z " fill="#E6A336" transform="translate(314,194)"/>
<path d="M0 0 C5.28 0.33 10.56 0.66 16 1 C16.05379846 5.27100028 16.09357782 9.54132732 16.125 13.8125 C16.14175781 15.02744141 16.15851563 16.24238281 16.17578125 17.49414062 C16.18222656 18.65751953 16.18867188 19.82089844 16.1953125 21.01953125 C16.20578613 22.09307861 16.21625977 23.16662598 16.22705078 24.27270508 C16 27 16 27 14 30 C14 21.09 14 12.18 14 3 C9.38 3 4.76 3 0 3 C0 2.01 0 1.02 0 0 Z " fill="#C69A51" transform="translate(255,170)"/>
<path d="M0 0 C0.33 0 0.66 0 1 0 C1.33 5.61 1.66 11.22 2 17 C5.31544299 18.10514766 8.20410111 18.32107631 11.6875 18.5625 C12.86699219 18.64628906 14.04648437 18.73007813 15.26171875 18.81640625 C16.61716797 18.90728516 16.61716797 18.90728516 18 19 C18 19.66 18 20.32 18 21 C11.3160932 22.21525578 5.20160034 22.10080017 -1 19 C-1.02690104 16.20826945 -1.04679053 13.41679652 -1.0625 10.625 C-1.07087891 9.8309375 -1.07925781 9.036875 -1.08789062 8.21875 C-1.11328125 2.2265625 -1.11328125 2.2265625 0 0 Z " fill="#887E66" transform="translate(478,169)"/>
<path d="M0 0 C0.99 0.495 0.99 0.495 2 1 C2 2.32 2 3.64 2 5 C2.66 5 3.32 5 4 5 C4.33 3.35 4.66 1.7 5 0 C5.33 0 5.66 0 6 0 C6.33 5.61 6.66 11.22 7 17 C5.02 17.33 3.04 17.66 1 18 C0.67 12.06 0.34 6.12 0 0 Z " fill="#9A8E74" transform="translate(461,170)"/>
<path d="M0 0 C0.33 0.66 0.66 1.32 1 2 C1.66 2 2.32 2 3 2 C1.41717681 6.26144705 -0.6111081 10.22001969 -2.8125 14.1875 C-3.14314453 14.81591797 -3.47378906 15.44433594 -3.81445312 16.09179688 C-5.50060589 19.11780999 -6.64728915 20.81790741 -9.76171875 22.42578125 C-10.50035156 22.61527344 -11.23898438 22.80476563 -12 23 C-10.2010497 17.92365174 -7.50973545 13.36286389 -4.875 8.6875 C-4.40707031 7.85154297 -3.93914062 7.01558594 -3.45703125 6.15429688 C-2.3073741 4.10133767 -1.15496198 2.04997798 0 0 Z " fill="#9E9E9E" transform="translate(89,171)"/>
<path d="M0 0 C8.58 0 17.16 0 26 0 C24.82213796 4.71144817 23.53976914 8.56142438 20 12 C16.51744631 12.98288879 13.27101718 12.76338218 9.6875 12.5 C8.75615234 12.46390625 7.82480469 12.4278125 6.86523438 12.390625 C4.57258193 12.29656746 2.28842909 12.16539029 0 12 C0 11.67 0 11.34 0 11 C5.94 10.67 11.88 10.34 18 10 C18.99 8.02 19.98 6.04 21 4 C21.66 4 22.32 4 23 4 C23 3.34 23 2.68 23 2 C11.615 1.505 11.615 1.505 0 1 C0 0.67 0 0.34 0 0 Z " fill="#CCA970" transform="translate(230,174)"/>
<path d="M0 0 C0.66 0.33 1.32 0.66 2 1 C2.02708567 2.60407328 2.04643483 4.2082785 2.0625 5.8125 C2.07410156 6.70582031 2.08570313 7.59914062 2.09765625 8.51953125 C2 11 2 11 1 14 C-2.7009107 16.88060575 -7.30121276 16.22091084 -11.75 16.125 C-12.54277344 16.11597656 -13.33554687 16.10695312 -14.15234375 16.09765625 C-16.10169281 16.07417012 -18.05088575 16.03830137 -20 16 C-20 15.34 -20 14.68 -20 14 C-19.04738281 13.96261719 -18.09476562 13.92523438 -17.11328125 13.88671875 C-15.23189453 13.78810547 -15.23189453 13.78810547 -13.3125 13.6875 C-11.45044922 13.60048828 -11.45044922 13.60048828 -9.55078125 13.51171875 C-5.85030441 12.97842671 -3.84205311 12.41786608 -1 10 C-0.18593502 7.51486417 -0.18593502 7.51486417 -0.1875 4.8125 C-0.13980469 3.91144531 -0.09210938 3.01039063 -0.04296875 2.08203125 C-0.02169922 1.05142578 -0.02169922 1.05142578 0 0 Z " fill="#8E866E" transform="translate(451,174)"/>
<path d="M0 0 C1 2 1 2 0.46875 3.7421875 C-2.53189496 10.34844616 -5.71735227 17.12750625 -10 23 C-10.99 23 -11.98 23 -13 23 C-11.49062025 17.79099923 -9.16624392 13.36833398 -6.5 8.6875 C-6.09652344 7.95982422 -5.69304687 7.23214844 -5.27734375 6.48242188 C-2.25226258 1.12613129 -2.25226258 1.12613129 0 0 Z " fill="#898989" transform="translate(103,150)"/>
<path d="M0 0 C0.33 0 0.66 0 1 0 C1.02886338 4.47915328 1.04675187 8.95828291 1.0625 13.4375 C1.07087891 14.71689453 1.07925781 15.99628906 1.08789062 17.31445312 C1.09111328 18.52939453 1.09433594 19.74433594 1.09765625 20.99609375 C1.10289307 22.12200928 1.10812988 23.2479248 1.11352539 24.40795898 C1 27 1 27 0 28 C-2.01964199 28.07244053 -4.04167124 28.08377188 -6.0625 28.0625 C-7.16722656 28.05347656 -8.27195312 28.04445312 -9.41015625 28.03515625 C-10.69212891 28.01775391 -10.69212891 28.01775391 -12 28 C-11.67 26.68 -11.34 25.36 -11 24 C-11 24.66 -11 25.32 -11 26 C-7.7 26 -4.4 26 -1 26 C-0.67 17.42 -0.34 8.84 0 0 Z " fill="#E0C498" transform="translate(282,173)"/>
<path d="M0 0 C3.52081558 -0.02927632 7.04159939 -0.04689119 10.5625 -0.0625 C11.55314453 -0.07087891 12.54378906 -0.07925781 13.56445312 -0.08789062 C18.82548699 -0.10536914 23.81764665 0.07691602 29 1 C29.33 1.99 29.66 2.98 30 4 C28.68 4 27.36 4 26 4 C26 3.34 26 2.68 26 2 C17.42 2 8.84 2 0 2 C0 1.34 0 0.68 0 0 Z " fill="#C78F31" transform="translate(322,175)"/>
<path d="M0 0 C8.58 0 17.16 0 26 0 C26 0.66 26 1.32 26 2 C17.42 2.33 8.84 2.66 0 3 C0 2.01 0 1.02 0 0 Z " fill="#7F7559" transform="translate(380,160)"/>
<path d="M0 0 C3.95831809 -0.02892857 7.91660917 -0.04677427 11.875 -0.0625 C13.56689453 -0.07506836 13.56689453 -0.07506836 15.29296875 -0.08789062 C16.36933594 -0.09111328 17.44570312 -0.09433594 18.5546875 -0.09765625 C19.54968262 -0.10289307 20.54467773 -0.10812988 21.56982422 -0.11352539 C24 0 24 0 26 1 C24.47291037 4.43595166 22.40072955 7.11912454 20 10 C19.67 8.02 19.34 6.04 19 4 C19.66 4 20.32 4 21 4 C20.67 3.34 20.34 2.68 20 2 C13.4 1.67 6.8 1.34 0 1 C0 0.67 0 0.34 0 0 Z " fill="#E4A943" transform="translate(190,189)"/>
<path d="M0 0 C0.66 0.33 1.32 0.66 2 1 C2 1.99 2 2.98 2 4 C1.34 4 0.68 4 0 4 C-0.51678155 9.24124207 -0.51678155 9.24124207 1.3125 13.875 C1.869375 14.24625 2.42625 14.6175 3 15 C3.99 15.66 4.98 16.32 6 17 C0.25 18.125 0.25 18.125 -2 17 C-2.98275588 14.05173237 -3.13414725 12.07347496 -3.125 9 C-3.12757813 8.13375 -3.13015625 7.2675 -3.1328125 6.375 C-3 4 -3 4 -2 1 C-1.34 0.67 -0.68 0.34 0 0 Z " fill="#A29E8F" transform="translate(428,171)"/>
<path d="M0 0 C0.66 0 1.32 0 2 0 C1.47729735 4.90309806 -0.0012631 8.18388507 -2.5625 12.375 C-3.20316406 13.43460938 -3.84382813 14.49421875 -4.50390625 15.5859375 C-4.99761719 16.38257813 -5.49132812 17.17921875 -6 18 C-6.99 17.67 -7.98 17.34 -9 17 C-7.5143761 12.99624358 -5.63136615 9.38578153 -3.5 5.6875 C-2.58734375 4.08455078 -2.58734375 4.08455078 -1.65625 2.44921875 C-1.1096875 1.64097656 -0.563125 0.83273438 0 0 Z " fill="#9B9B9B" transform="translate(112,160)"/>
<path d="M0 0 C5.28 0 10.56 0 16 0 C16 0.66 16 1.32 16 2 C10.06 2.495 10.06 2.495 4 3 C3.67 5.31 3.34 7.62 3 10 C2.01 9.67 1.02 9.34 0 9 C0 6.03 0 3.06 0 0 Z " fill="#897F68" transform="translate(525,188)"/>
<path d="M0 0 C3.23210656 0.26265426 4.02249374 1.02633019 6.17578125 3.546875 C6.88089844 4.60390625 7.58601562 5.6609375 8.3125 6.75 C9.38951172 8.32007813 9.38951172 8.32007813 10.48828125 9.921875 C12 13 12 13 11.73046875 15.890625 C11.36888672 16.93476563 11.36888672 16.93476563 11 18 C10.731875 17.4225 10.46375 16.845 10.1875 16.25 C9.04946754 13.94252104 9.04946754 13.94252104 7.375 11.875 C6 10 6 10 6 8 C5.34 8 4.68 8 4 8 C4 7.01 4 6.02 4 5 C2.68 5 1.36 5 0 5 C-0.33 4.01 -0.66 3.02 -1 2 C-0.67 1.34 -0.34 0.68 0 0 Z " fill="#D0B37C" transform="translate(132,145)"/>
<path d="M0 0 C3.40636923 1.4095321 5.23944644 2.73040054 7 6 C7.53709412 8.99016821 7.81220596 11.96939277 8 15 C7.34 14.67 6.68 14.34 6 14 C5.01 15.485 5.01 15.485 4 17 C3.96261719 16.40832031 3.92523437 15.81664062 3.88671875 15.20703125 C3.47906117 10.30714701 2.80602989 7.14804418 0 3 C0 2.01 0 1.02 0 0 Z " fill="#BCB7AA" transform="translate(554,162)"/>
<path d="M0 0 C0.99 0.33 1.98 0.66 3 1 C1.625 3.5 1.625 3.5 0 6 C-0.66 6 -1.32 6 -2 6 C-1.66226563 6.60328125 -1.32453125 7.2065625 -0.9765625 7.828125 C-0.53054687 8.62734375 -0.08453125 9.4265625 0.375 10.25 C0.81585938 11.03890625 1.25671875 11.8278125 1.7109375 12.640625 C2.85747823 14.73914197 3.94649552 16.8536077 5 19 C4.01 19 3.02 19 2 19 C-3.98280084 9.65398626 -3.98280084 9.65398626 -4.0234375 5.74609375 C-3.5 3.875 -3.5 3.875 -2 1 C-1.34 0.67 -0.68 0.34 0 0 Z " fill="#CEA55B" transform="translate(138,165)"/>
<path d="M0 0 C2.96404505 2.80804268 5.44499019 5.18315774 7 9 C6.01 10.485 6.01 10.485 5 12 C4.69449219 11.43410156 4.38898437 10.86820313 4.07421875 10.28515625 C1.83326396 6.69331604 0.37424015 4.36382489 -3.84765625 3.24609375 C-6.58595733 3.02349637 -9.25461078 2.92183945 -12 3 C-12 2.67 -12 2.34 -12 2 C-8.04 2 -4.08 2 0 2 C0 1.34 0 0.68 0 0 Z " fill="#C1BBAE" transform="translate(541,188)"/>
<path d="M0 0 C1.65 0 3.3 0 5 0 C4.38334341 4.2844786 3.38816051 8.21436438 2 12.3125 C1.649375 13.36050781 1.29875 14.40851563 0.9375 15.48828125 C0 18 0 18 -1 19 C-2.99958364 19.04080783 -5.00045254 19.04254356 -7 19 C-7 18.67 -7 18.34 -7 18 C-5.35 18 -3.7 18 -2 18 C-1.34 15.03 -0.68 12.06 0 9 C0.66 9 1.32 9 2 9 C1.979375 8.05125 1.95875 7.1025 1.9375 6.125 C2 3 2 3 3 1 C2.01 0.67 1.02 0.34 0 0 Z " fill="#CEAF75" transform="translate(306,160)"/>
<path d="M0 0 C2.97 0 5.94 0 9 0 C9 2.97 9 5.94 9 9 C8.34 9 7.68 9 7 9 C6.20046862 5.71303767 5.90341064 4.28976808 7 1 C5.02 1 3.04 1 1 1 C1 6.28 1 11.56 1 17 C0.67 17 0.34 17 0 17 C0 11.39 0 5.78 0 0 Z " fill="#ECAC36" transform="translate(180,162)"/>
<path d="M0 0 C2.89299606 1.44649803 3.55202964 3.54704321 5.0625 6.375 C5.58972656 7.35210937 6.11695313 8.32921875 6.66015625 9.3359375 C8 12 8 12 9 15 C6.26214592 14.64899307 5.25118702 14.31993294 3.515625 12.109375 C2.88914063 10.94148437 2.88914063 10.94148437 2.25 9.75 C1.82203125 8.98171875 1.3940625 8.2134375 0.953125 7.421875 C-0.09006898 4.77113619 -0.18016322 2.8225571 0 0 Z " fill="#99A0A5" transform="translate(129,210)"/>
<path d="M0 0 C9.9 0 19.8 0 30 0 C29.34 1.65 28.68 3.3 28 5 C27.67 3.68 27.34 2.36 27 1 C25.35 1.66 23.7 2.32 22 3 C22 2.34 22 1.68 22 1 C14.74 1 7.48 1 0 1 C0 0.67 0 0.34 0 0 Z " fill="#EDA838" transform="translate(268,162)"/>
<path d="M0 0 C-2.15781091 1.67829738 -4.04637741 3.02036081 -6.5625 4.125 C-10.22953915 6.94579935 -10.87480658 10.63644502 -12 15 C-12.33 15 -12.66 15 -13 15 C-13.45504688 6.05074462 -13.45504688 6.05074462 -10 2 C-6.59985328 0.12097155 -3.85017077 -0.22000976 0 0 Z " fill="#C39F61" transform="translate(324,160)"/>
<path d="M0 0 C0.33 0 0.66 0 1 0 C1.0825 1.27875 1.165 2.5575 1.25 3.875 C1.45869931 6.05333418 1.45869931 6.05333418 2 8 C3.92064793 9.5899433 3.92064793 9.5899433 6 10 C6 10.99 6 11.98 6 13 C4.25 12.875 4.25 12.875 2 12 C-2 6.88888889 -2 6.88888889 -2 3 C-1.34 3 -0.68 3 0 3 C0 2.01 0 1.02 0 0 Z " fill="#B7B0A4" transform="translate(468,184)"/>
<path d="M0 0 C4.97700254 4.23966883 8.73824609 10.01600548 9.3125 16.5625 C9.1578125 17.7690625 9.1578125 17.7690625 9 19 C6.80379588 16.80379588 6.01537758 14.71293136 4.86328125 11.87109375 C3.92440327 9.69811952 3.92440327 9.69811952 1.8125 6.8125 C0 4 0 4 0 0 Z " fill="#CFA35E" transform="translate(148,194)"/>
<path d="M0 0 C0.99 0.33 1.98 0.66 3 1 C1.91796875 2.953125 1.91796875 2.953125 0 5 C-3.13671875 5.609375 -3.13671875 5.609375 -6.6875 5.75 C-7.86699219 5.80671875 -9.04648437 5.8634375 -10.26171875 5.921875 C-11.16535156 5.94765625 -12.06898438 5.9734375 -13 6 C-13 5.01 -13 4.02 -13 3 C-12.14535156 2.95101562 -11.29070312 2.90203125 -10.41015625 2.8515625 C-9.30542969 2.77679688 -8.20070313 2.70203125 -7.0625 2.625 C-5.40927734 2.52058594 -5.40927734 2.52058594 -3.72265625 2.4140625 C-2.37494141 2.20910156 -2.37494141 2.20910156 -1 2 C-0.67 1.34 -0.34 0.68 0 0 Z " fill="#CDA45F" transform="translate(294,168)"/>
<path d="M0 0 C0.75 1.625 0.75 1.625 1 4 C-0.75 6.9375 -0.75 6.9375 -3 10 C-4.01059521 11.66026356 -5.01453001 13.32470102 -6 15 C-6.66 14.67 -7.32 14.34 -8 14 C-7.04661031 12.03925516 -6.0871246 10.08147348 -5.125 8.125 C-4.59132813 7.03445312 -4.05765625 5.94390625 -3.5078125 4.8203125 C-2 2 -2 2 0 0 Z " fill="#CCAB76" transform="translate(121,165)"/>
<path d="M0 0 C5.61 0 11.22 0 17 0 C17 0.33 17 0.66 17 1 C15.02 1.33 13.04 1.66 11 2 C11 2.33 11 2.66 11 3 C5.06 3.495 5.06 3.495 -1 4 C-0.67 2.68 -0.34 1.36 0 0 Z " fill="#CAC2B3" transform="translate(431,159)"/>
<path d="M0 0 C0.33 0 0.66 0 1 0 C1.1953125 2.05078125 1.390625 4.1015625 1.5859375 6.15234375 C1.72257813 6.76207031 1.85921875 7.37179688 2 8 C2.66 8.33 3.32 8.66 4 9 C3.67 9.99 3.34 10.98 3 12 C-1.29 12 -5.58 12 -10 12 C-10 11.67 -10 11.34 -10 11 C-8.906875 10.855625 -7.81375 10.71125 -6.6875 10.5625 C-3.06877013 10.11711896 -3.06877013 10.11711896 0 9 C0 6.03 0 3.06 0 0 Z " fill="#D6D1BD" transform="translate(524,189)"/>
<path d="M0 0 C0.33 0 0.66 0 1 0 C1.33 5.61 1.66 11.22 2 17 C1.34 17 0.68 17 0 17 C0 15.02 0 13.04 0 11 C-0.99 10.67 -1.98 10.34 -3 10 C-3 8.68 -3 7.36 -3 6 C-2.01 6 -1.02 6 0 6 C0 4.02 0 2.04 0 0 Z " fill="#837659" transform="translate(466,170)"/>
<path d="M0 0 C0.99 0.33 1.98 0.66 3 1 C3 3.97 3 6.94 3 10 C4.32 10 5.64 10 7 10 C7 10.66 7 11.32 7 12 C5.02 12 3.04 12 1 12 C0.67 8.04 0.34 4.08 0 0 Z " fill="#C79D58" transform="translate(297,166)"/>
<path d="M0 0 C2.29225435 0.11371497 4.58382388 0.24130964 6.875 0.375 C8.15117188 0.44460937 9.42734375 0.51421875 10.7421875 0.5859375 C14 1 14 1 16 3 C11.05 3 6.1 3 1 3 C0.67 2.01 0.34 1.02 0 0 Z " fill="#868368" transform="translate(546,197)"/>
<path d="M0 0 C1.66832577 2.50248865 2.62381674 4.41149187 3.625 7.1875 C3.88539063 7.90292969 4.14578125 8.61835938 4.4140625 9.35546875 C4.60742188 9.89816406 4.80078125 10.44085938 5 11 C4.01 11 3.02 11 2 11 C-2 5.85714286 -2 5.85714286 -2 2 C-1.34 2 -0.68 2 0 2 C0 1.34 0 0.68 0 0 Z " fill="#ADA697" transform="translate(416,184)"/>
<path d="M0 0 C4.95 0 9.9 0 15 0 C15 0.33 15 0.66 15 1 C12.03 1 9.06 1 6 1 C6 2.65 6 4.3 6 6 C5.01 5.67 4.02 5.34 3 5 C3 5.66 3 6.32 3 7 C2.34 6.67 1.68 6.34 1 6 C1.99 4.35 2.98 2.7 4 1 C2.68 0.67 1.36 0.34 0 0 Z " fill="#C0882E" transform="translate(294,161)"/>
<path d="M0 0 C1.32 0 2.64 0 4 0 C3.125 4.75 3.125 4.75 2 7 C1.34 7 0.68 7 0 7 C-0.66 8.32 -1.32 9.64 -2 11 C-2.33 10.01 -2.66 9.02 -3 8 C-2.00692179 6.66150329 -1.00642948 5.32848691 0 4 C0 2.68 0 1.36 0 0 Z " fill="#C5A068" transform="translate(352,160)"/>
<path d="M0 0 C0.66 0 1.32 0 2 0 C2.33 2.31 2.66 4.62 3 7 C1.02 7.99 1.02 7.99 -1 9 C-2 6 -2 6 -2 3 C-1.34 2.01 -0.68 1.02 0 0 Z " fill="#B7AFA0" transform="translate(547,171)"/>
<path d="M0 0 C6 6 6 6 6.0625 9.0625 C6.041875 10.031875 6.02125 11.00125 6 12 C0 4.8 0 4.8 0 0 Z " fill="#CDA45A" transform="translate(137,204)"/>
<path d="M0 0 C0.66 0 1.32 0 2 0 C1.47229401 3.79948314 0.62859821 6.16920193 -2 9 C-2.99 9.33 -3.98 9.66 -5 10 C-3.85569823 6.12697862 -2.76679902 2.99736561 0 0 Z " fill="#8C8C8C" transform="translate(89,201)"/>
<path d="M0 0 C0.66 0 1.32 0 2 0 C1.25531915 7.74468085 1.25531915 7.74468085 -2 11 C-2.66 11 -3.32 11 -4 11 C-3.67 9.35 -3.34 7.7 -3 6 C-2.34 6 -1.68 6 -1 6 C-0.67 4.02 -0.34 2.04 0 0 Z " fill="#CEA05C" transform="translate(253,189)"/>
<path d="M0 0 C1.4540625 0.0309375 1.4540625 0.0309375 2.9375 0.0625 C2.6075 1.0525 2.2775 2.0425 1.9375 3.0625 C0.9475 3.0625 -0.0425 3.0625 -1.0625 3.0625 C-1.0625 3.7225 -1.0625 4.3825 -1.0625 5.0625 C-1.7225 5.0625 -2.3825 5.0625 -3.0625 5.0625 C-3.3925 5.7225 -3.7225 6.3825 -4.0625 7.0625 C-4.10504356 5.06295254 -4.10330783 3.06208364 -4.0625 1.0625 C-3.0625 0.0625 -3.0625 0.0625 0 0 Z " fill="#F5AA2D" transform="translate(305.0625,162.9375)"/>
<path d="M0 0 C2.94721162 2.74395564 5.19168608 5.38337216 7 9 C6.67 9.66 6.34 10.32 6 11 C3.66475218 8.74259377 1.81294927 6.7194239 0 4 C0 2.68 0 1.36 0 0 Z " fill="#D4B478" transform="translate(157,209)"/>
<path d="M0 0 C1 2 1 2 0.44140625 4.1640625 C0.15136719 4.97617188 -0.13867188 5.78828125 -0.4375 6.625 C-0.72496094 7.44226563 -1.01242188 8.25953125 -1.30859375 9.1015625 C-1.53675781 9.72804687 -1.76492187 10.35453125 -2 11 C-2.99 11 -3.98 11 -5 11 C-4.32902328 6.80639551 -2.1441606 3.59665648 0 0 Z " fill="#EFAB3B" transform="translate(119,172)"/>
<path d="M0 0 C0.66 0 1.32 0 2 0 C1.67 1.32 1.34 2.64 1 4 C-4.94 4 -10.88 4 -17 4 C-17 3.67 -17 3.34 -17 3 C-11.72 3 -6.44 3 -1 3 C-0.67 2.01 -0.34 1.02 0 0 Z " fill="#C0A06F" transform="translate(119,197)"/>
<path d="M0 0 C-2 2 -2 2 -4.3828125 2.1953125 C-5.28773438 2.17210937 -6.19265625 2.14890625 -7.125 2.125 C-8.49011719 2.09792969 -8.49011719 2.09792969 -9.8828125 2.0703125 C-10.58148438 2.04710937 -11.28015625 2.02390625 -12 2 C-12 1.34 -12 0.68 -12 0 C-3.42857143 -1.28571429 -3.42857143 -1.28571429 0 0 Z " fill="#978F7E" transform="translate(450,199)"/>
<path d="M0 0 C1.125 1.75 1.125 1.75 2 4 C1.4375 6.125 1.4375 6.125 0 8 C-2.625 9.25 -2.625 9.25 -5 10 C-3.66511872 6.40608886 -2.03977277 3.24509304 0 0 Z " fill="#A2A2A2" transform="translate(82,184)"/>
<path d="M0 0 C1 3 1 3 -0.4375 6.1875 C-1.2109375 7.5796875 -1.2109375 7.5796875 -2 9 C-2.99 9 -3.98 9 -5 9 C-3.90931332 5.22454612 -3.0916909 2.52956528 0 0 Z " fill="#7C7C7C" transform="translate(95,164)"/>
<path d="M0 0 C0.66 0.66 1.32 1.32 2 2 C2.99 2 3.98 2 5 2 C4.34 2.66 3.68 3.32 3 4 C3.165 4.66 3.33 5.32 3.5 6 C3.665 6.66 3.83 7.32 4 8 C3.34 8.66 2.68 9.32 2 10 C-1.07692308 4.58461538 -1.07692308 4.58461538 -0.6875 1.625 C-0.460625 1.08875 -0.23375 0.5525 0 0 Z " fill="#B5AD96" transform="translate(415,163)"/>
<path d="M0 0 C0.99 0.66 1.98 1.32 3 2 C1.02 4.97 -0.96 7.94 -3 11 C-3.33 9.68 -3.66 8.36 -4 7 C-3.34 6.01 -2.68 5.02 -2 4 C-1.34 4 -0.68 4 0 4 C0 2.68 0 1.36 0 0 Z " fill="#CDB072" transform="translate(255,160)"/>
<path d="M0 0 C2.0343459 1.41519715 2.90410393 2.54982123 3.421875 4.98046875 C3.66273952 6.98176954 3.83532741 8.9909944 4 11 C2.29159719 9.36587557 1.06546953 8.13093906 0 6 C-0.039992 4.00039988 -0.04346799 1.99952758 0 0 Z " fill="#DAAC60" transform="translate(143,212)"/>
<path d="M0 0 C0.5775 0.45375 1.155 0.9075 1.75 1.375 C3.7800333 2.84113516 5.73539843 3.94857784 8 5 C7.67 5.66 7.34 6.32 7 7 C3.31245243 6.50168276 1.39509338 5.89932357 -1 3 C-0.67 2.01 -0.34 1.02 0 0 Z " fill="#BBB6AC" transform="translate(420,192)"/>
<path d="M0 0 C0.99 0 1.98 0 3 0 C2.6875 1.875 2.6875 1.875 2 4 C1.01 4.66 0.02 5.32 -1 6 C-2.19232613 8.05003955 -2.19232613 8.05003955 -3 10 C-3.33 9.34 -3.66 8.68 -4 8 C-1.48571429 1.48571429 -1.48571429 1.48571429 0 0 Z " fill="#D6B376" transform="translate(125,187)"/>
<path d="M0 0 C0.33 0.66 0.66 1.32 1 2 C1.66 2.33 2.32 2.66 3 3 C1.68 5.31 0.36 7.62 -1 10 C-1.66 9.01 -2.32 8.02 -3 7 C-2.21069203 4.51064409 -1.1651105 2.330221 0 0 Z " fill="#AAAAAA" transform="translate(105,144)"/>
<path d="M0 0 C1.98 0.495 1.98 0.495 4 1 C4.33 2.65 4.66 4.3 5 6 C4.34 6 3.68 6 3 6 C3 5.34 3 4.68 3 4 C1.68 4.33 0.36 4.66 -1 5 C-0.67 3.35 -0.34 1.7 0 0 Z " fill="#808080" transform="translate(111,134)"/>
<path d="M0 0 C-0.25 2.375 -0.25 2.375 -1 5 C-3.0625 6.3125 -3.0625 6.3125 -5 7 C-4.625 4.0625 -4.625 4.0625 -4 1 C-2 0 -2 0 0 0 Z " fill="#9C957F" transform="translate(511,188)"/>
<path d="M0 0 C0.33 0 0.66 0 1 0 C1.25 5.625 1.25 5.625 -1 9 C-1.66 9 -2.32 9 -3 9 C-2.44271087 5.65626525 -1.64826111 2.96687001 0 0 Z " fill="#9E9586" transform="translate(560,175)"/>
<path d="M0 0 C0.66 1.32 1.32 2.64 2 4 C0.68 5.32 -0.64 6.64 -2 8 C-2.6875 5.6875 -2.6875 5.6875 -3 3 C-1.5625 1.1875 -1.5625 1.1875 0 0 Z " fill="#AB9F90" transform="translate(379,161)"/>
<path d="M0 0 C0.66 0 1.32 0 2 0 C1.38461538 5.53846154 1.38461538 5.53846154 -0.5625 7.875 C-1.036875 8.24625 -1.51125 8.6175 -2 9 C-2.25 3.375 -2.25 3.375 0 0 Z " fill="#8D8C8D" transform="translate(112,160)"/>
<path d="M0 0 C0.99 0.33 1.98 0.66 3 1 C3 2.98 3 4.96 3 7 C2.01 7 1.02 7 0 7 C-0.93423645 3.98968256 -1.04449911 3.13349732 0 0 Z " fill="#DAA040" transform="translate(139,158)"/>
<path d="M0 0 C2.32472205 2.85306797 3.7508258 5.54074837 5 9 C2.5625 8.3125 2.5625 8.3125 0 7 C-0.875 4.5 -0.875 4.5 -1 2 C-0.67 1.34 -0.34 0.68 0 0 Z " fill="#DCB279" transform="translate(143,184)"/>
<path d="M0 0 C0.33 0.99 0.66 1.98 1 3 C-0.8125 6.1875 -0.8125 6.1875 -3 9 C-3.66 9 -4.32 9 -5 9 C-3.90931332 5.22454612 -3.0916909 2.52956528 0 0 Z " fill="#C59D59" transform="translate(261,160)"/>
<path d="M0 0 C2.64 0 5.28 0 8 0 C7.01 1.485 7.01 1.485 6 3 C2.875 3.1875 2.875 3.1875 0 3 C0 2.01 0 1.02 0 0 Z " fill="#8B836A" transform="translate(380,160)"/>
<path d="M0 0 C-1.8125 1.5625 -1.8125 1.5625 -4 3 C-7 2 -7 2 -9 0 C-5.52176885 -1.15941038 -3.54104422 -0.70820884 0 0 Z " fill="#BEB9AF" transform="translate(456,197)"/>
<path d="M0 0 C0.66 1.32 1.32 2.64 2 4 C0.8553125 4.2165625 0.8553125 4.2165625 -0.3125 4.4375 C-3.08172908 4.9632594 -3.08172908 4.9632594 -6 6 C-4.75453595 2.26360784 -3.36595047 1.81243487 0 0 Z " fill="#BCBAA8" transform="translate(556,182)"/>
<path d="M0 0 C2 3 2 3 2 5 C2.66 5.33 3.32 5.66 4 6 C3.67 6.66 3.34 7.32 3 8 C1.68 7.67 0.36 7.34 -1 7 C-0.67 4.69 -0.34 2.38 0 0 Z " fill="#9D988B" transform="translate(478,181)"/>
<path d="M0 0 C0.99 0 1.98 0 3 0 C2.42415568 2.38564077 1.77772405 4.66682784 1 7 C0.01 6.67 -0.98 6.34 -2 6 C-1.34 4.02 -0.68 2.04 0 0 Z " fill="#7D7D7D" transform="translate(84,180)"/>
<path d="M0 0 C2.96865509 2.54456151 4.3619751 5.48994665 6 9 C5.01 9 4.02 9 3 9 C0.50022457 5.66696609 0 4.26696398 0 0 Z " fill="#D4B37A" transform="translate(137,175)"/>
<path d="M0 0 C0.66 0 1.32 0 2 0 C5 4.38461538 5 4.38461538 5 7 C3.68 6.67 2.36 6.34 1 6 C0.67 4.02 0.34 2.04 0 0 Z " fill="#858985" transform="translate(133,218)"/>
<path d="M0 0 C0.66 0 1.32 0 2 0 C1.67 1.98 1.34 3.96 1 6 C-0.32 6.33 -1.64 6.66 -3 7 C-1.125 2.25 -1.125 2.25 0 0 Z " fill="#808080" transform="translate(64,215)"/>
<path d="M0 0 C0.66 0 1.32 0 2 0 C0.47291037 3.43595166 -1.59927045 6.11912454 -4 9 C-3.4739075 5.21213403 -2.61896089 2.82847776 0 0 Z " fill="#CCAA6B" transform="translate(214,190)"/>
<path d="M0 0 C0.66 0 1.32 0 2 0 C2.33 1.32 2.66 2.64 3 4 C0.39417629 4.93065133 -0.64198224 5.14917407 -3.25 4.0625 C-3.8275 3.711875 -4.405 3.36125 -5 3 C-4.360625 2.87625 -3.72125 2.7525 -3.0625 2.625 C-2.0415625 2.315625 -2.0415625 2.315625 -1 2 C-0.67 1.34 -0.34 0.68 0 0 Z " fill="#BCB7AE" transform="translate(504,193)"/>
<path d="M0 0 C1.98 0.99 1.98 0.99 4 2 C3.42655063 4.86724686 3.1385485 5.8614515 1 8 C0 2.25 0 2.25 0 0 Z " fill="#E4A33D" transform="translate(144,191)"/>
<path d="M0 0 C0.99 0 1.98 0 3 0 C3.66 1.32 4.32 2.64 5 4 C4.01 5.485 4.01 5.485 3 7 C0 3.375 0 3.375 0 0 Z " fill="#ACA799" transform="translate(543,193)"/>
<path d="M0 0 C3.63 0 7.26 0 11 0 C11.33 0.99 11.66 1.98 12 3 C10.68 3 9.36 3 8 3 C8 2.34 8 1.68 8 1 C5.36 1 2.72 1 0 1 C0 0.67 0 0.34 0 0 Z " fill="#CD963B" transform="translate(340,176)"/>
<path d="M0 0 C2.0625 1.6875 2.0625 1.6875 4 4 C3.75 6.75 3.75 6.75 3 9 C1.35173889 6.03312999 0.55728913 3.34373475 0 0 Z " fill="#CFB590" transform="translate(140,154)"/>
<path d="M0 0 C0.99 0 1.98 0 3 0 C3 0.66 3 1.32 3 2 C3.66 2 4.32 2 5 2 C4.67 3.32 4.34 4.64 4 6 C3.34 5.01 2.68 4.02 2 3 C1.01 3 0.02 3 -1 3 C-0.67 2.01 -0.34 1.02 0 0 Z " fill="#EBB35A" transform="translate(136,202)"/>
<path d="M0 0 C0.6875 1.8125 0.6875 1.8125 1 4 C-0.4375 5.75 -0.4375 5.75 -2 7 C-2.6875 5.1875 -2.6875 5.1875 -3 3 C-1.5625 1.25 -1.5625 1.25 0 0 Z " fill="#8D8D8A" transform="translate(104,176)"/>
</svg>
