<?xml version="1.0" encoding="UTF-8"?>
<svg version="1.1" xmlns="http://www.w3.org/2000/svg" width="160" height="160">
<path d="M0 0 C52.8 0 105.6 0 160 0 C160 52.8 160 105.6 160 160 C107.2 160 54.4 160 0 160 C0 107.2 0 54.4 0 0 Z " fill="#0F1827" transform="translate(0,0)"/>
<path d="M0 0 C0.66 0 1.32 0 2 0 C5.55768597 4.45949495 8.94688726 9.68606114 11 15 C10.55518346 18.90016771 9.21655056 21.82604863 7.33984375 25.24609375 C6.7977124 26.24084717 6.25558105 27.23560059 5.69702148 28.26049805 C4.82605835 29.83311401 4.82605835 29.83311401 3.9375 31.4375 C3.34332275 32.52135986 2.74914551 33.60521973 2.13696289 34.72192383 C-1.80105408 41.88648758 -5.79675391 49.01445985 -9.89550781 56.08837891 C-12.25708913 60.17573118 -14.59530312 64.27652051 -16.9375 68.375 C-17.70513672 69.71727661 -17.70513672 69.71727661 -18.48828125 71.08666992 C-22.06970236 77.35472643 -25.62411899 83.63739086 -29.14624023 89.93896484 C-31.04333671 93.32751809 -32.99475748 96.67454229 -35 100 C-34.3117514 99.96748642 -33.62350281 99.93497284 -32.91439819 99.901474 C-25.74562644 99.57185108 -18.57651081 99.30655551 -11.40380859 99.07836914 C-8.72730883 98.98993674 -6.05318541 98.87885938 -3.37841797 98.74829102 C0.46887513 98.5689983 4.3142139 98.44877743 8.1640625 98.33984375 C9.35802643 98.2715184 10.55199036 98.20319305 11.78213501 98.13279724 C19.91148368 97.98264065 19.91148368 97.98264065 23.02655029 100.89407349 C24.58075099 103.20183774 25.79719762 105.49444831 27 108 C27.93959893 109.49113737 28.89529283 110.97240251 29.875 112.4375 C32 115.74528302 32 115.74528302 32 118 C-0.67 118 -33.34 118 -67 118 C-66.17695738 113.88478691 -65.76267624 112.19737579 -63.69921875 108.875 C-63.22291016 108.09705078 -62.74660156 107.31910156 -62.25585938 106.51757812 C-61.73830078 105.68677734 -61.22074219 104.85597656 -60.6875 104 C-59.58527136 102.19911984 -58.48507154 100.39699665 -57.38671875 98.59375 C-56.82259277 97.66820313 -56.2584668 96.74265625 -55.67724609 95.7890625 C-53.03996076 91.40356794 -50.51897254 86.95417392 -48 82.5 C-44.02053569 75.4757266 -39.93621847 68.52796182 -35.75 61.625 C-31.56265048 54.71432442 -27.61519256 47.73724584 -23.9140625 40.5546875 C-21.958432 36.83090844 -19.76984251 33.25577412 -17.59228516 29.65869141 C-14.40227964 24.33223325 -11.37703165 18.9097689 -8.32421875 13.50390625 C-2.75713756 3.70069131 -2.75713756 3.70069131 0 0 Z " fill="#F8F9FA" transform="translate(80,23)"/>
<path d="M0 0 C0.66 0 1.32 0 2 0 C2.31453125 0.65226562 2.6290625 1.30453125 2.953125 1.9765625 C5.8069265 7.85706935 5.8069265 7.85706935 9.375 13.3125 C11 16 11 16 10.8515625 18.3203125 C9.79418003 21.64767203 8.14175657 23.81263755 6 26.5625 C2.58931279 30.861296 2.58931279 30.861296 1 36 C1.66 36 2.32 36 3 36 C3.83819158 37.62249941 4.6704116 39.24808497 5.5 40.875 C5.9640625 41.77992187 6.428125 42.68484375 6.90625 43.6171875 C8 46 8 46 8 48 C8.66 48 9.32 48 10 48 C11.0076952 49.7664657 12.00591714 51.53833823 13 53.3125 C13.556875 54.29863281 14.11375 55.28476563 14.6875 56.30078125 C16 59 16 59 16 62 C16.66 62 17.32 62 18 62 C19.40112305 64.01269531 19.40112305 64.01269531 21.01171875 66.828125 C21.60533203 67.85679688 22.19894531 68.88546875 22.81054688 69.9453125 C23.42994141 71.03585938 24.04933594 72.12640625 24.6875 73.25 C25.28755859 74.29414062 25.88761719 75.33828125 26.50585938 76.4140625 C27.72316528 78.53225323 28.93651574 80.65272181 30.14599609 82.77539062 C32.5892121 87.02479767 35.1039408 91.23089428 37.62817383 95.43261719 C38.82970462 97.68129094 39.54102814 99.51063626 40 102 C37.60408962 102.02712351 35.20849043 102.0468982 32.8125 102.0625 C32.13896484 102.07087891 31.46542969 102.07925781 30.77148438 102.08789062 C23.18253402 102.1249099 23.18253402 102.1249099 20 101 C18.375 99.03125 18.375 99.03125 17 96.5 C16.49082031 95.58476562 15.98164062 94.66953125 15.45703125 93.7265625 C14.97621094 92.82679688 14.49539062 91.92703125 14 91 C13.23034607 89.62433948 12.45955647 88.24931358 11.6875 86.875 C11.08421875 85.78058594 11.08421875 85.78058594 10.46875 84.6640625 C8.55178262 81.18700997 6.62515045 77.71557027 4.6875 74.25 C4.3049707 73.56583008 3.92244141 72.88166016 3.52832031 72.17675781 C0.3308152 66.50031808 -3.06859709 60.9721457 -6.56640625 55.4765625 C-8 53 -8 53 -8 51 C-10.24830883 53.08993739 -11.78046574 55.10953938 -13.26171875 57.79296875 C-13.79865356 58.75626099 -13.79865356 58.75626099 -14.34643555 59.73901367 C-14.78898682 60.54701416 -15.23153809 61.35501465 -15.6875 62.1875 C-17.110625 64.765625 -18.53375 67.34375 -20 70 C-25.94 70 -31.88 70 -38 70 C-35.8897741 62.35043111 -32.2818964 55.94019317 -28.265625 49.15771484 C-26.34619375 45.88535115 -24.48028572 42.58299724 -22.60766602 39.28369141 C-18.17963349 31.48548466 -13.6818249 23.74002793 -9.03173828 16.07226562 C-5.85004723 10.80540687 -2.88173665 5.43574638 0 0 Z " fill="#F6A72E" transform="translate(108,38)"/>
<path d="M0 0 C0.33 0 0.66 0 1 0 C1 1.65 1 3.3 1 5 C2.65 5 4.3 5 6 5 C6.38218767 6.65614657 6.71395102 8.32457024 7 10 C6.67 10.33 6.34 10.66 6 11 C5.85978323 14.57552768 5.96061027 17.79123441 6.625 21.3125 C6.74875 22.199375 6.8725 23.08625 7 24 C6.34 24.66 5.68 25.32 5 26 C5.28718326 27.6752357 5.63128912 29.34080104 6 31 C6.03824623 33.33301986 6.04574284 35.66711508 6 38 C5.34 38 4.68 38 4 38 C3.54625 37.175 3.0925 36.35 2.625 35.5 C2.08875 34.675 1.5525 33.85 1 33 C-0.32 33 -1.64 33 -3 33 C-4.32 35.31 -5.64 37.62 -7 40 C-7.66 40 -8.32 40 -9 40 C-9 40.66 -9 41.32 -9 42 C-9.99 42 -10.98 42 -12 42 C-12.33 44.31 -12.66 46.62 -13 49 C-17.62 49 -22.24 49 -27 49 C-25 44 -25 44 -24.0625 42.1875 C-22.75324374 39.4919724 -21.76356887 36.71712138 -20.73046875 33.90625 C-19.94734942 31.86260169 -19.04237808 29.92439031 -18 28 C-17.34 28 -16.68 28 -16 28 C-15.7525 27.154375 -15.505 26.30875 -15.25 25.4375 C-13.68451695 21.13242162 -11.85624941 16.76105713 -8.4765625 13.5546875 C-6.7485376 11.73523271 -6.12544376 10.17390806 -5.3125 7.8125 C-5.06113281 7.09707031 -4.80976562 6.38164063 -4.55078125 5.64453125 C-4.36902344 5.10183594 -4.18726562 4.55914062 -4 4 C-3.34 4 -2.68 4 -2 4 C-1.34 2.68 -0.68 1.36 0 0 Z " fill="#FCA727" transform="translate(101,57)"/>
<path d="M0 0 C0.66 0 1.32 0 2 0 C2.31453125 0.65226562 2.6290625 1.30453125 2.953125 1.9765625 C5.8069265 7.85706935 5.8069265 7.85706935 9.375 13.3125 C11 16 11 16 11 18.5625 C9.76082436 21.58299063 8.27311455 23.66002914 6 26 C5.01 26 4.02 26 3 26 C3 26.99 3 27.98 3 29 C2.01 29.495 2.01 29.495 1 30 C0.53476937 31.89533342 0.53476937 31.89533342 0.375 34.0625 C0.25125 35.361875 0.1275 36.66125 0 38 C-0.99 37.505 -0.99 37.505 -2 37 C-2.08159574 32.83861737 -1.98248524 29.0527516 -1 25 C-1.78375 24.87625 -2.5675 24.7525 -3.375 24.625 C-6 24 -6 24 -8 22 C-11.20148213 24.13432142 -11.52206739 24.68419896 -12.6875 28.125 C-12.93886719 28.84945312 -13.19023438 29.57390625 -13.44921875 30.3203125 C-13.63097656 30.87460938 -13.81273438 31.42890625 -14 32 C-14.66 32 -15.32 32 -16 32 C-16.226875 32.804375 -16.45375 33.60875 -16.6875 34.4375 C-18.33631588 38.91285739 -20.60544412 42.88721318 -23 47 C-23.66 47 -24.32 47 -25 47 C-25.45894807 48.52064794 -25.91712214 50.04152948 -26.375 51.5625 C-26.65214844 52.47386719 -26.92929688 53.38523438 -27.21484375 54.32421875 C-27.85055814 56.49070809 -28.40656765 58.68047962 -28.9375 60.875 C-30 64 -30 64 -34 68 C-29.38 68 -24.76 68 -20 68 C-19.67 65.69 -19.34 63.38 -19 61 C-18.01 61 -17.02 61 -16 61 C-16 60.34 -16 59.68 -16 59 C-15.34 59.33 -14.68 59.66 -14 60 C-15.2859342 64.13863879 -16.71914505 67.11406277 -20 70 C-25.85283405 71.35172596 -32.08114399 70.55838264 -38 70 C-35.8897741 62.35043111 -32.2818964 55.94019317 -28.265625 49.15771484 C-26.34619375 45.88535115 -24.48028572 42.58299724 -22.60766602 39.28369141 C-18.17963349 31.48548466 -13.6818249 23.74002793 -9.03173828 16.07226562 C-5.85004723 10.80540687 -2.88173665 5.43574638 0 0 Z " fill="#FBA825" transform="translate(108,38)"/>
<path d="M0 0 C4.796875 -0.1796875 4.796875 -0.1796875 6.625 1.4375 C7.305625 2.2109375 7.305625 2.2109375 8 3 C8.99 3.33 9.98 3.66 11 4 C11.33 3.01 11.66 2.02 12 1 C12.99 0.67 13.98 0.34 15 0 C14.36845535 2.98514274 13.39649136 5.36336451 11.91796875 8.02734375 C11.48605225 8.80972412 11.05413574 9.59210449 10.60913086 10.39819336 C10.13999268 11.23616455 9.67085449 12.07413574 9.1875 12.9375 C8.70482666 13.80834229 8.22215332 14.67918457 7.72485352 15.57641602 C3.52321438 23.13100767 -0.76995979 30.63390913 -5.11450195 38.10717773 C-5.59363037 38.93677002 -6.07275879 39.7663623 -6.56640625 40.62109375 C-6.98865479 41.3473999 -7.41090332 42.07370605 -7.84594727 42.82202148 C-9.0839508 45.1584356 -10.05949392 47.53052838 -11 50 C-1.90823788 50.5050865 -1.90823788 50.5050865 7 49 C10.28466014 45.73561554 11.73348756 42.41823593 13 38 C14.26823485 41.65393537 13.75715321 44.49070026 13.0625 48.25 C12.86785156 49.32765625 12.67320313 50.4053125 12.47265625 51.515625 C12.31667969 52.33546875 12.16070312 53.1553125 12 54 C10.515 53.505 10.515 53.505 9 53 C7.50546967 52.87629673 6.00676679 52.79928743 4.5078125 52.75390625 C3.63769531 52.72103516 2.76757812 52.68816406 1.87109375 52.65429688 C0.04829516 52.59336406 -1.77462784 52.53604036 -3.59765625 52.48242188 C-8.12381137 52.30525332 -11.88972884 52.12392673 -16 50 C-16 49.01 -16 48.02 -16 47 C-15.34 47 -14.68 47 -14 47 C-14.061875 46.2575 -14.12375 45.515 -14.1875 44.75 C-13.92501285 40.90018853 -12.27166371 39.11906406 -9.4375 36.625 C-7.77342096 34.9707805 -7.77342096 34.9707805 -7.125 32.125 C-5.78470658 28.40196271 -3.91607233 26.61698799 -1 24 C-0.67 23.67 -0.34 23.34 0 23 C-0.66 22.67 -1.32 22.34 -2 22 C-2 21.34 -2 20.68 -2 20 C-1.34 19.67 -0.68 19.34 0 19 C-0.33 17.68 -0.66 16.36 -1 15 C-2.65 14.67 -4.3 14.34 -6 14 C-5.41892368 10.2397015 -4.34800504 7.46964968 -2.4375 4.1875 C-1.98246094 3.39730469 -1.52742188 2.60710938 -1.05859375 1.79296875 C-0.70925781 1.20128906 -0.35992187 0.60960937 0 0 Z " fill="#14181F" transform="translate(81,58)"/>
<path d="M0 0 C0.66 0.33 1.32 0.66 2 1 C2 2.65 2 4.3 2 6 C2.99 5.67 3.98 5.34 5 5 C5.33 5.99 5.66 6.98 6 8 C6.99 8.33 7.98 8.66 9 9 C9.042721 10.66611905 9.04063832 12.33382885 9 14 C8.67 14.33 8.34 14.66 8 15 C10.05233685 17.2477975 11.00667261 18.0022242 14 19 C15.1875 21.5625 15.1875 21.5625 16 24 C14.35 24.33 12.7 24.66 11 25 C11 24.01 11 23.02 11 22 C10.01 22.33 9.02 22.66 8 23 C8 22.34 8 21.68 8 21 C5.03 21 2.06 21 -1 21 C-1.33 20.01 -1.66 19.02 -2 18 C-2.99 17.67 -3.98 17.34 -5 17 C-6.26237731 14.47524538 -6.09856404 12.68799534 -6.0625 9.875 C-6.05347656 8.96492188 -6.04445313 8.05484375 -6.03515625 7.1171875 C-6.02355469 6.41851562 -6.01195313 5.71984375 -6 5 C-5.34 5.66 -4.68 6.32 -4 7 C-3.34 6.34 -2.68 5.68 -2 5 C-1.34 5.33 -0.68 5.66 0 6 C-0.2784375 4.7934375 -0.2784375 4.7934375 -0.5625 3.5625 C-0.706875 2.716875 -0.85125 1.87125 -1 1 C-0.67 0.67 -0.34 0.34 0 0 Z " fill="#FCA92C" transform="translate(129,113)"/>
<path d="M0 0 C0.89868727 2.51632435 1.1616905 3.60732308 0.125 6.125 C-0.24625 6.74375 -0.6175 7.3625 -1 8 C-1.33 8.66 -1.66 9.32 -2 10 C-2.66 10.66 -3.32 11.32 -4 12 C-4.165 12.680625 -4.33 13.36125 -4.5 14.0625 C-4.665 14.701875 -4.83 15.34125 -5 16 C-5.66 16.33 -6.32 16.66 -7 17 C-7.90343684 18.88263881 -7.90343684 18.88263881 -8.625 21.0625 C-8.88539062 21.79597656 -9.14578125 22.52945313 -9.4140625 23.28515625 C-9.60742188 23.85105469 -9.80078125 24.41695312 -10 25 C-10.66 25 -11.32 25 -12 25 C-12.226875 25.804375 -12.45375 26.60875 -12.6875 27.4375 C-14.33631588 31.91285739 -16.60544412 35.88721318 -19 40 C-19.66 40 -20.32 40 -21 40 C-21.45894807 41.52064794 -21.91712214 43.04152948 -22.375 44.5625 C-22.65214844 45.47386719 -22.92929688 46.38523438 -23.21484375 47.32421875 C-23.85055814 49.49070809 -24.40656765 51.68047962 -24.9375 53.875 C-26 57 -26 57 -30 61 C-25.38 61 -20.76 61 -16 61 C-15.67 58.69 -15.34 56.38 -15 54 C-14.01 54 -13.02 54 -12 54 C-12 53.34 -12 52.68 -12 52 C-11.34 52.33 -10.68 52.66 -10 53 C-11.2859342 57.13863879 -12.71914505 60.11406277 -16 63 C-21.85283405 64.35172596 -28.08114399 63.55838264 -34 63 C-31.8897741 55.35043111 -28.2818964 48.94019317 -24.265625 42.15771484 C-22.34586185 38.8847853 -20.47963911 35.58185529 -18.60668945 32.28198242 C-14.09274872 24.33245106 -9.52319984 16.42414535 -4.76586914 8.61743164 C-3.05116469 5.79694115 -1.4152118 2.98361664 0 0 Z " fill="#D6A854" transform="translate(104,45)"/>
<path d="M0 0 C4.13125212 3.68463027 5.85377675 6.96104106 8 12 C8.68964844 12.45246094 9.37929687 12.90492187 10.08984375 13.37109375 C12 15 12 15 12.3125 17.55859375 C11.46020489 25.41036249 11.46020489 25.41036249 9 28.5625 C8.34 29.036875 7.68 29.51125 7 30 C6.67 30.66 6.34 31.32 6 32 C3.9375 33.125 3.9375 33.125 2 34 C2.52479302 39.25600397 4.29582761 42.86607443 6.9375 47.3125 C7.29779297 47.94478516 7.65808594 48.57707031 8.02929688 49.22851562 C9.91764522 52.70142137 9.91764522 52.70142137 13 55 C13.69258229 56.99117408 14.35747635 58.9921136 15 61 C15.66 61.99 16.32 62.98 17 64 C16.625 66.1875 16.625 66.1875 16 68 C15.67 66.68 15.34 65.36 15 64 C14.34 64 13.68 64 13 64 C11.99515796 62.04414675 10.99626195 60.08523763 10 58.125 C9.1646875 56.48917969 9.1646875 56.48917969 8.3125 54.8203125 C7 52 7 52 7 50 C6.34 50 5.68 50 5 50 C4.16180842 48.37750059 3.3295884 46.75191503 2.5 45.125 C2.0359375 44.22007813 1.571875 43.31515625 1.09375 42.3828125 C0 40 0 40 0 38 C-0.66 38 -1.32 38 -2 38 C-1.36268042 32.31552049 1.85252428 29.1101651 5.3828125 24.81640625 C7.26657494 22.09728496 7.26657494 22.09728496 6.93359375 18.9296875 C5.97513864 15.92198319 4.86227429 14.04241014 2.9375 11.5625 C-0.02204102 7.39512721 -0.64267817 5.0343123 0 0 Z " fill="#0C111D" transform="translate(111,36)"/>
<path d="M0 0 C1.32 0.33 2.64 0.66 4 1 C4.268125 2.093125 4.53625 3.18625 4.8125 4.3125 C6.088556 8.3354429 6.088556 8.3354429 9 11 C11.17112287 11.53776775 11.17112287 11.53776775 13.5 11.625 C16.30202115 11.82114148 18.29874545 12.09958182 21 13 C21 13.99 21 14.98 21 16 C22.32 15.34 23.64 14.68 25 14 C24.67 12.68 24.34 11.36 24 10 C22.68 9.67 21.36 9.34 20 9 C20 8.34 20 7.68 20 7 C19.01 6.67 18.02 6.34 17 6 C17.66 4.02 18.32 2.04 19 0 C21.37954736 3.09707241 23.56142357 6.28647028 25.6875 9.5625 C26.31011719 10.51253906 26.93273437 11.46257812 27.57421875 12.44140625 C29 15 29 15 29 18 C26.60408962 18.02712351 24.20849043 18.0468982 21.8125 18.0625 C21.13896484 18.07087891 20.46542969 18.07925781 19.77148438 18.08789062 C12.16233709 18.12500842 12.16233709 18.12500842 9 17 C7.3046875 14.9609375 7.3046875 14.9609375 5.875 12.375 C5.37484375 11.4778125 4.8746875 10.580625 4.359375 9.65625 C2.73554285 6.48324465 1.29866594 3.31881295 0 0 Z " fill="#E7A13B" transform="translate(119,122)"/>
<path d="M0 0 C0.66 0.33 1.32 0.66 2 1 C1.67 2.65 1.34 4.3 1 6 C0.34 6 -0.32 6 -1 6 C-1 6.66 -1 7.32 -1 8 C-0.01 8.33 0.98 8.66 2 9 C-2.75 14.75 -2.75 14.75 -5 17 C-5.309375 17.94875 -5.61875 18.8975 -5.9375 19.875 C-6.94030738 22.82443346 -8.00887882 24.64685679 -10 27 C-10.66 25.02 -11.32 23.04 -12 21 C-11.01 20.67 -10.02 20.34 -9 20 C-9.2475 18.948125 -9.495 17.89625 -9.75 16.8125 C-10 13 -10 13 -8.125 10.25 C-7.073125 9.13625 -7.073125 9.13625 -6 8 C-5.67 7.01 -5.34 6.02 -5 5 C-3.37347684 3.29413425 -1.70993434 1.6222454 0 0 Z " fill="#0D1A2B" transform="translate(80,72)"/>
<path d="M0 0 C-0.58581792 3.83670085 -1.70724628 6.62816303 -3.65234375 9.9765625 C-4.18150391 10.894375 -4.71066406 11.8121875 -5.25585938 12.7578125 C-5.81080078 13.70398437 -6.36574219 14.65015625 -6.9375 15.625 C-7.48857422 16.57890625 -8.03964844 17.5328125 -8.60742188 18.515625 C-10.66684708 22.06894675 -12.72132819 25.58199229 -15 29 C-15.66 29 -16.32 29 -17 29 C-16.67 24.71 -16.34 20.42 -16 16 C-15.34 16.33 -14.68 16.66 -14 17 C-11.93426196 16.08511327 -11.93426196 16.08511327 -10 14 C-9.42255458 11.93326582 -9.42255458 11.93326582 -9.0625 9.625 C-8.10076523 4.36121951 -5.87814124 0 0 0 Z " fill="#0B101B" transform="translate(73,33)"/>
<path d="M0 0 C0.66 0 1.32 0 2 0 C2.67154933 1.28913487 3.33708859 2.58140204 4 3.875 C4.37125 4.59429687 4.7425 5.31359375 5.125 6.0546875 C6 8 6 8 6 10 C5.01 10 4.02 10 3 10 C3 9.01 3 8.02 3 7 C2.34 7 1.68 7 1 7 C1 7.66 1 8.32 1 9 C0.01 9.495 0.01 9.495 -1 10 C-1 10.66 -1 11.32 -1 12 C-0.67 11.34 -0.34 10.68 0 10 C0.66 10 1.32 10 2 10 C2.33 10.99 2.66 11.98 3 13 C2.236875 13.70125 1.47375 14.4025 0.6875 15.125 C-1.96590478 17.96352604 -3.44000743 20.46949051 -5 24 C-6.32 23.01 -7.64 22.02 -9 21 C-8.08734296 18.65316761 -7.1816243 16.35089814 -6.0234375 14.11328125 C-4.61691947 11.20898257 -3.73585022 8.19760426 -2.78125 5.12109375 C-2 3 -2 3 0 0 Z " fill="#FDA62D" transform="translate(108,38)"/>
<path d="M0 0 C1.34374179 4.03122538 0.4530301 6.05606115 -1 10 C-2.32 11.32 -3.64 12.64 -5 14 C-0.38 14 4.24 14 9 14 C9.33 11.69 9.66 9.38 10 7 C10.99 7 11.98 7 13 7 C13 6.34 13 5.68 13 5 C13.66 5.33 14.32 5.66 15 6 C13.7140658 10.13863879 12.28085495 13.11406277 9 16 C3.14716595 17.35172596 -3.08114399 16.55838264 -9 16 C-7.18947481 9.36227103 -4.87534544 4.90690107 0 0 Z " fill="#F8AE31" transform="translate(79,92)"/>
<path d="M0 0 C1.26823485 3.65393537 0.75715321 6.49070026 0.0625 10.25 C-0.13214844 11.32765625 -0.32679687 12.4053125 -0.52734375 13.515625 C-0.68332031 14.33546875 -0.83929688 15.1553125 -1 16 C-1.99 15.67 -2.98 15.34 -4 15 C-5.54120056 14.86486196 -7.08676406 14.77615808 -8.6328125 14.71875 C-9.52097656 14.68136719 -10.40914062 14.64398438 -11.32421875 14.60546875 C-13.19920771 14.53486247 -15.07420785 14.4645524 -16.94921875 14.39453125 C-18.27759766 14.33845703 -18.27759766 14.33845703 -19.6328125 14.28125 C-20.44637207 14.25095703 -21.25993164 14.22066406 -22.09814453 14.18945312 C-24 14 -24 14 -25 13 C-25.04092937 10.66702567 -25.04241723 8.33294775 -25 6 C-24.01 6.495 -24.01 6.495 -23 7 C-23.33 8.65 -23.66 10.3 -24 12 C-14.90823788 12.5050865 -14.90823788 12.5050865 -6 11 C-2.71533986 7.73561554 -1.26651244 4.41823593 0 0 Z " fill="#2C190E" transform="translate(94,96)"/>
<path d="M0 0 C0.33 0.66 0.66 1.32 1 2 C0.67 2.7425 0.34 3.485 0 4.25 C-1.39813444 8.09486972 -0.88399454 11.04254519 0.80419922 14.78076172 C1.80054895 16.65697875 2.85248426 18.48621687 3.9375 20.3125 C4.29779297 20.94478516 4.65808594 21.57707031 5.02929688 22.22851562 C6.91764522 25.70142137 6.91764522 25.70142137 10 28 C10.69258229 29.99117408 11.35747635 31.9921136 12 34 C12.66 34.99 13.32 35.98 14 37 C13.625 39.1875 13.625 39.1875 13 41 C12.67 39.68 12.34 38.36 12 37 C11.34 37 10.68 37 10 37 C8.99515796 35.04414675 7.99626195 33.08523763 7 31.125 C6.443125 30.03445312 5.88625 28.94390625 5.3125 27.8203125 C4 25 4 25 4 23 C3.34 23 2.68 23 2 23 C1.16180842 21.37750059 0.3295884 19.75191503 -0.5 18.125 C-0.9640625 17.22007813 -1.428125 16.31515625 -1.90625 15.3828125 C-3 13 -3 13 -3 11 C-3.66 11 -4.32 11 -5 11 C-4.46884894 6.48521602 -2.63379708 3.65333143 0 0 Z " fill="#321C07" transform="translate(114,63)"/>
<path d="M0 0 C2.31 0.33 4.62 0.66 7 1 C9.22923777 5.32734391 8.92470553 8.28400182 8 13 C7.34 11.68 6.68 10.36 6 9 C4.68 9 3.36 9 2 9 C1.67 9.99 1.34 10.98 1 12 C0.01 12 -0.98 12 -2 12 C-1 3.42857143 -1 3.42857143 0 0 Z " fill="#081523" transform="translate(95,96)"/>
<path d="M0 0 C2 3.75 2 3.75 2 6 C2.66 6 3.32 6 4 6 C2.74821404 8.50357192 1.00018842 10.06433379 -1 12 C-1.66 11.67 -2.32 11.34 -3 11 C-3.33 12.32 -3.66 13.64 -4 15 C-19.18656716 17.20895522 -19.18656716 17.20895522 -24 14 C-15.585 13.505 -15.585 13.505 -7 13 C-7 11.68 -7 10.36 -7 9 C-6.0409375 8.566875 -6.0409375 8.566875 -5.0625 8.125 C-2.84793921 7.17176549 -2.84793921 7.17176549 -2 5 C-1.34 5 -0.68 5 0 5 C0 3.35 0 1.7 0 0 Z " fill="#0B131E" transform="translate(120,128)"/>
<path d="M0 0 C5.18626646 4.22584675 7.9232836 10.7698508 10 17 C16.6 17.33 23.2 17.66 30 18 C29.01 15.69 28.02 13.38 27 11 C27.99 11 28.98 11 30 11 C30.33 13.64 30.66 16.28 31 19 C27.56257082 19.05802698 24.12526747 19.09360486 20.6875 19.125 C19.71103516 19.14175781 18.73457031 19.15851563 17.72851562 19.17578125 C16.32182617 19.18544922 16.32182617 19.18544922 14.88671875 19.1953125 C14.02264404 19.20578613 13.15856934 19.21625977 12.26831055 19.22705078 C10 19 10 19 7 17 C6.3125 14.375 6.3125 14.375 6 12 C5.34 12 4.68 12 4 12 C3.67 10.02 3.34 8.04 3 6 C2.34 6 1.68 6 1 6 C0.67 4.02 0.34 2.04 0 0 Z " fill="#331C06" transform="translate(118,122)"/>
<path d="M0 0 C0.66 0 1.32 0 2 0 C2 0.99 2 1.98 2 3 C2.99 3 3.98 3 5 3 C7.32590854 6.63423209 7.16265833 9.77088331 7 14 C5.68 14.33 4.36 14.66 3 15 C3 13.68 3 12.36 3 11 C1.68 11.33 0.36 11.66 -1 12 C-1.125 9.625 -1.125 9.625 -1 7 C-0.34 6.34 0.32 5.68 1 5 C1 4.34 1 3.68 1 3 C0.34 3 -0.32 3 -1 3 C-1.33 3.99 -1.66 4.98 -2 6 C-2.33 5.01 -2.66 4.02 -3 3 C-2.01 2.67 -1.02 2.34 0 2 C0 1.34 0 0.68 0 0 Z " fill="#FCA924" transform="translate(109,45)"/>
<path d="M0 0 C0.66 0 1.32 0 2 0 C3.65625 2.44921875 3.65625 2.44921875 5.5 5.6875 C6.1084375 6.74324219 6.716875 7.79898438 7.34375 8.88671875 C8.76389787 11.55619481 9.94958999 14.16914502 11 17 C9.68 16.34 8.36 15.68 7 15 C7 14.34 7 13.68 7 13 C6.34 13 5.68 13 5 13 C4.67 11.35 4.34 9.7 4 8 C2.68 7.67 1.36 7.34 0 7 C-0.33 7.66 -0.66 8.32 -1 9 C-1 8.34 -1 7.68 -1 7 C-1.66 7 -2.32 7 -3 7 C-1.125 1.125 -1.125 1.125 0 0 Z " fill="#1E0A16" transform="translate(98,89)"/>
<path d="M0 0 C1.5625 1.1875 1.5625 1.1875 3 3 C3 7.99309588 -0.31209617 12.00285889 -3 16 C-4.32 15.67 -5.64 15.34 -7 15 C-6.75 12.625 -6.75 12.625 -6 10 C-4.66666667 9.33333333 -3.33333333 8.66666667 -2 8 C-1.24680201 5.56740432 -1.24680201 5.56740432 -1 3 C-0.67 2.01 -0.34 1.02 0 0 Z " fill="#0B111C" transform="translate(18,120)"/>
<path d="M0 0 C0.75 2.125 0.75 2.125 1 5 C-0.9375 8.3125 -0.9375 8.3125 -3 11 C-4.65 10.67 -6.3 10.34 -8 10 C-5.54716981 0 -5.54716981 0 0 0 Z " fill="#0A1320" transform="translate(48,73)"/>
<path d="M0 0 C1.32 0 2.64 0 4 0 C4 0.66 4 1.32 4 2 C3.34 2 2.68 2 2 2 C2 2.66 2 3.32 2 4 C2.66 4 3.32 4 4 4 C4.33 5.65 4.66 7.3 5 9 C5.66 8.34 6.32 7.68 7 7 C7.66 9.31 8.32 11.62 9 14 C8.34 14.66 7.68 15.32 7 16 C5.84372186 14.44521347 4.7003781 12.88080281 3.5625 11.3125 C2.92441406 10.44238281 2.28632812 9.57226562 1.62890625 8.67578125 C0.00302017 6.00496119 -0.70185723 4.09526406 -1 1 C-0.67 0.67 -0.34 0.34 0 0 Z " fill="#0D141D" transform="translate(104,122)"/>
<path d="M0 0 C0.66 0 1.32 0 2 0 C0.25192871 5.46737191 -1.65794081 10.75824848 -4 16 C-4.33 16 -4.66 16 -5 16 C-5.33 17.65 -5.66 19.3 -6 21 C-7.32 21 -8.64 21 -10 21 C-10 20.01 -10 19.02 -10 18 C-9.34 18 -8.68 18 -8 18 C-8.061875 17.2575 -8.12375 16.515 -8.1875 15.75 C-7.92501285 11.90018853 -6.27166371 10.11906406 -3.4375 7.625 C-1.42141467 5.34594702 -0.8346935 2.88932365 0 0 Z " fill="#0B1218" transform="translate(75,87)"/>
<path d="M0 0 C1.65 0 3.3 0 5 0 C5.33 0.99 5.66 1.98 6 3 C5.01 4.485 5.01 4.485 4 6 C3.01 5.67 2.02 5.34 1 5 C1 5.66 1 6.32 1 7 C1.99 7.33 2.98 7.66 4 8 C-1.75 10 -1.75 10 -4 10 C-2.8905928 6.51329166 -1.73662334 3.22515763 0 0 Z " fill="#0E131C" transform="translate(50,112)"/>
<path d="M0 0 C0.66 0 1.32 0 2 0 C2 0.66 2 1.32 2 2 C2.99 2.33 3.98 2.66 5 3 C6.24609375 5.07421875 6.24609375 5.07421875 7.4375 7.6875 C8.88195445 10.76024856 10.29574245 13.5805802 12.3125 16.3125 C14.13260922 19.21119247 14.39424465 20.64892051 14 24 C11.87917817 21.26311696 10.03539058 18.48373964 8.30078125 15.48828125 C7.81416016 14.64845703 7.32753906 13.80863281 6.82617188 12.94335938 C6.32666016 12.07517578 5.82714844 11.20699219 5.3125 10.3125 C4.80138672 9.43271484 4.29027344 8.55292969 3.76367188 7.64648438 C0 1.12915137 0 1.12915137 0 0 Z " fill="#251403" transform="translate(128,104)"/>
<path d="M0 0 C1.32 0.33 2.64 0.66 4 1 C4.08226668 4.04386724 3.97608217 6.07175348 3 9 C2.34 9 1.68 9 1 9 C1 8.34 1 7.68 1 7 C-0.32 7.33 -1.64 7.66 -3 8 C-3 6.35 -3 4.7 -3 3 C-2.01 2.67 -1.02 2.34 0 2 C0 1.34 0 0.68 0 0 Z " fill="#FCA722" transform="translate(113,87)"/>
<path d="M0 0 C0.33 0.99 0.66 1.98 1 3 C3.01508358 3.73323796 3.01508358 3.73323796 5 4 C5 5.98 5 7.96 5 10 C3.35 9.67 1.7 9.34 0 9 C0 8.01 0 7.02 0 6 C-0.99 5.34 -1.98 4.68 -3 4 C-2.01 2.68 -1.02 1.36 0 0 Z " fill="#0A101C" transform="translate(83,17)"/>
<path d="M0 0 C0.66 0.33 1.32 0.66 2 1 C-2.95 9.91 -2.95 9.91 -8 19 C-9 16 -9 16 -8.328125 14.203125 C-7.97234375 13.55859375 -7.6165625 12.9140625 -7.25 12.25 C-5.80672882 9.55755274 -4.50962718 6.89906794 -3.375 4.0625 C-2 1 -2 1 0 0 Z " fill="#251708" transform="translate(80,84)"/>
<path d="M0 0 C2.57142805 2.15668159 3.88974743 3.70166951 5.0625 6.875 C4.97216141 11.39192949 3.10646812 12.81776437 0 16 C-0.66 14.68 -1.32 13.36 -2 12 C-0.68 11.67 0.64 11.34 2 11 C1.855625 10.37351562 1.71125 9.74703125 1.5625 9.1015625 C1.376875 8.28429688 1.19125 7.46703125 1 6.625 C0.7215625 5.40683594 0.7215625 5.40683594 0.4375 4.1640625 C0 2 0 2 0 0 Z " fill="#E9A239" transform="translate(114,48)"/>
<path d="M0 0 C0.66 0 1.32 0 2 0 C2.67154933 1.28913487 3.33708859 2.58140204 4 3.875 C4.37125 4.59429687 4.7425 5.31359375 5.125 6.0546875 C6 8 6 8 6 10 C5.01 10 4.02 10 3 10 C3 9.01 3 8.02 3 7 C1.02 7 -0.96 7 -3 7 C-1.125 2.25 -1.125 2.25 0 0 Z " fill="#DEAF4C" transform="translate(108,38)"/>
<path d="M0 0 C1 3 1 3 0.22265625 5.04296875 C-0.8515625 7.02864583 -1.92578125 9.01432292 -3 11 C2.28 11 7.56 11 13 11 C13 11.33 13 11.66 13 12 C7.06 12 1.12 12 -5 12 C-2.25 3.375 -2.25 3.375 0 0 Z " fill="#D7A54D" transform="translate(75,96)"/>
<path d="M0 0 C1.109375 3.734375 1.109375 3.734375 0.125 6.125 C-0.24625 6.74375 -0.6175 7.3625 -1 8 C-1.33 8.66 -1.66 9.32 -2 10 C-2.66 10.66 -3.32 11.32 -4 12 C-4.144375 12.639375 -4.28875 13.27875 -4.4375 13.9375 C-5.11214503 16.41119844 -6.01508279 17.41206623 -8 19 C-8.66 19 -9.32 19 -10 19 C-8.40376856 14.60616294 -6.21975667 10.71004193 -3.875 6.6875 C-3.50246094 6.04232422 -3.12992187 5.39714844 -2.74609375 4.73242188 C-1.83367787 3.15324055 -0.91724491 1.57638136 0 0 Z " fill="#D3A457" transform="translate(104,45)"/>
<path d="M0 0 C2.63978826 3.18595135 5.10498388 6.30970546 7 10 C6.67 10.66 6.34 11.32 6 12 C5.401875 11.484375 4.80375 10.96875 4.1875 10.4375 C3.465625 9.963125 2.74375 9.48875 2 9 C1.01 9.33 0.02 9.66 -1 10 C-0.67 6.7 -0.34 3.4 0 0 Z " fill="#DF9D3A" transform="translate(131,110)"/>
<path d="M0 0 C0.99 0.33 1.98 0.66 3 1 C2.34 2.65 1.68 4.3 1 6 C0.34 6 -0.32 6 -1 6 C-1.28875 6.94875 -1.5775 7.8975 -1.875 8.875 C-3 12 -3 12 -5 14 C-4.53411505 8.29290936 -3.06242216 4.84060277 0 0 Z " fill="#DFB04D" transform="translate(93,64)"/>
<path d="M0 0 C1.32 0 2.64 0 4 0 C5.51953125 1.64453125 5.51953125 1.64453125 6.8125 3.8125 C7.47185547 4.87404297 7.47185547 4.87404297 8.14453125 5.95703125 C9 8 9 8 8 11 C8 10.34 8 9.68 8 9 C7.38640625 8.91878906 6.7728125 8.83757812 6.140625 8.75390625 C4 8 4 8 2.734375 6.15234375 C2.40953125 5.42144531 2.0846875 4.69054687 1.75 3.9375 C1.41484375 3.20402344 1.0796875 2.47054687 0.734375 1.71484375 C0.49203125 1.14894531 0.2496875 0.58304687 0 0 Z " fill="#051423" transform="translate(135,113)"/>
<path d="M0 0 C1.32 0.33 2.64 0.66 4 1 C4.28875 2.134375 4.5775 3.26875 4.875 4.4375 C5.24625 5.613125 5.6175 6.78875 6 8 C6.66 8.33 7.32 8.66 8 9 C8.625 12.0625 8.625 12.0625 9 15 C5.70474877 12.04272325 3.98883968 9.30729258 2.25 5.25 C1.82203125 4.26515625 1.3940625 3.2803125 0.953125 2.265625 C0.63859375 1.51796875 0.3240625 0.7703125 0 0 Z " fill="#DEA846" transform="translate(119,122)"/>
<path d="M0 0 C0.66 0.33 1.32 0.66 2 1 C1.67 1.99 1.34 2.98 1 4 C0.65179959 5.66362417 0.31595508 7.32995171 0 9 C-1.65 9.33 -3.3 9.66 -5 10 C-4.38545304 6.00544473 -2.29353263 3.25533664 0 0 Z " fill="#070E1E" transform="translate(38,88)"/>
<path d="M0 0 C1.32 0.33 2.64 0.66 4 1 C4 3.64 4 6.28 4 9 C2.68 9.33 1.36 9.66 0 10 C0 10.66 0 11.32 0 12 C-0.66 11.67 -1.32 11.34 -2 11 C-1.484375 10.484375 -0.96875 9.96875 -0.4375 9.4375 C1.57265701 6.0289729 0.79727396 3.76893143 0 0 Z " fill="#30170C" transform="translate(117,51)"/>
<path d="M0 0 C0.66 0.99 1.32 1.98 2 3 C1.5390625 5.04296875 1.5390625 5.04296875 0.625 7.1875 C0.32851562 7.90292969 0.03203125 8.61835937 -0.2734375 9.35546875 C-0.51320313 9.89816406 -0.75296875 10.44085938 -1 11 C-1.66 11 -2.32 11 -3 11 C-3.33 11.66 -3.66 12.32 -4 13 C-3.125 9.125 -3.125 9.125 -2 8 C-2.66 7.67 -3.32 7.34 -4 7 C-4 6.34 -4 5.68 -4 5 C-3.34 4.67 -2.68 4.34 -2 4 C-0.86649466 1.98330173 -0.86649466 1.98330173 0 0 Z " fill="#0B151A" transform="translate(83,73)"/>
<path d="M0 0 C0.66 0 1.32 0 2 0 C0.66666667 3.33333333 -0.66666667 6.66666667 -2 10 C-1.34 10 -0.68 10 0 10 C0.33 11.32 0.66 12.64 1 14 C0.01 14 -0.98 14 -2 14 C-3.60725635 10.78548731 -3.05748185 7.56387464 -3 4 C-2.01 3.67 -1.02 3.34 0 3 C0 2.01 0 1.02 0 0 Z " fill="#D99D3A" transform="translate(111,64)"/>
<path d="M0 0 C0.33 0.66 0.66 1.32 1 2 C0.5359375 3.1446875 0.5359375 3.1446875 0.0625 4.3125 C-1.04184216 7.10583605 -1.1696523 9.03108472 -1 12 C-2.32 11.67 -3.64 11.34 -5 11 C-4.46884894 6.48521602 -2.63379708 3.65333143 0 0 Z " fill="#41200E" transform="translate(114,63)"/>
<path d="M0 0 C0.66 0.33 1.32 0.66 2 1 C2.33 1.99 2.66 2.98 3 4 C3.66 4.33 4.32 4.66 5 5 C5 5.66 5 6.32 5 7 C4.01 7 3.02 7 2 7 C1.34 8.32 0.68 9.64 0 11 C-0.66 11 -1.32 11 -2 11 C-1.855625 10.37351562 -1.71125 9.74703125 -1.5625 9.1015625 C-1.376875 8.28429688 -1.19125 7.46703125 -1 6.625 C-0.814375 5.81289063 -0.62875 5.00078125 -0.4375 4.1640625 C0.06605239 2.04125049 0.06605239 2.04125049 0 0 Z " fill="#2B313A" transform="translate(90,36)"/>
<path d="M0 0 C2.48503465 2.48503465 2.93619649 4.67561404 4 8 C4.391875 8.721875 4.78375 9.44375 5.1875 10.1875 C6 12 6 12 5 15 C1.24569762 9.83783423 -0.67081836 6.43985624 0 0 Z " fill="#251206" transform="translate(111,36)"/>
<path d="M0 0 C2.475 0.495 2.475 0.495 5 1 C5.33 2.98 5.66 4.96 6 7 C6.66 7 7.32 7 8 7 C7.67 8.32 7.34 9.64 7 11 C5 8 5 8 5 5 C4.01 5 3.02 5 2 5 C2 3.68 2 2.36 2 1 C1.34 0.67 0.68 0.34 0 0 Z " fill="#100C1E" transform="translate(143,128)"/>
<path d="M0 0 C2.0625 0.4375 2.0625 0.4375 4 1 C3.67 2.32 3.34 3.64 3 5 C1.35 5.33 -0.3 5.66 -2 6 C-1.125 1.125 -1.125 1.125 0 0 Z " fill="#0D1317" transform="translate(77,66)"/>
<path d="M0 0 C0.66 0.33 1.32 0.66 2 1 C2 1.99 2 2.98 2 4 C1.34 4 0.68 4 0 4 C-0.33 5.65 -0.66 7.3 -1 9 C-1.99 9 -2.98 9 -4 9 C-3.35455571 5.51460083 -1.89865603 2.97180943 0 0 Z " fill="#0F1334" transform="translate(122,135)"/>
<path d="M0 0 C3.29963329 1.09987776 3.61064772 1.45586748 5.25 4.3125 C5.60578125 4.90675781 5.9615625 5.50101562 6.328125 6.11328125 C7.15994803 8.4491564 6.7945524 9.69274206 6 12 C4.99466333 10.37829621 3.99588093 8.75252763 3 7.125 C2.443125 6.22007813 1.88625 5.31515625 1.3125 4.3828125 C0 2 0 2 0 0 Z " fill="#E1A638" transform="translate(104,96)"/>
<path d="M0 0 C0.66 0 1.32 0 2 0 C2.33 1.32 2.66 2.64 3 4 C2.01 4.495 2.01 4.495 1 5 C-0.13350534 7.01669827 -0.13350534 7.01669827 -1 9 C-1 8.34 -1 7.68 -1 7 C-1.66 7 -2.32 7 -3 7 C-1.125 1.125 -1.125 1.125 0 0 Z " fill="#311606" transform="translate(98,89)"/>
<path d="M0 0 C0.33 0.66 0.66 1.32 1 2 C3.02463255 2.65213292 3.02463255 2.65213292 5 3 C4.01 4.98 3.02 6.96 2 9 C0 7 0 7 -0.125 3.375 C-0.08375 2.26125 -0.0425 1.1475 0 0 Z " fill="#1E242E" transform="translate(48,68)"/>
<path d="M0 0 C1.65 0 3.3 0 5 0 C5.625 1.875 5.625 1.875 6 4 C5.34 4.66 4.68 5.32 4 6 C2 4.6875 2 4.6875 0 3 C0 2.01 0 1.02 0 0 Z " fill="#171D29" transform="translate(81,58)"/>
<path d="M0 0 C0.99 0.33 1.98 0.66 3 1 C3.625 3.875 3.625 3.875 4 7 C3.34 7.66 2.68 8.32 2 9 C-1.07692308 4.56923077 -1.07692308 4.56923077 -0.6875 1.6875 C-0.460625 1.130625 -0.23375 0.57375 0 0 Z " fill="#070D19" transform="translate(91,32)"/>
<path d="M0 0 C4.19731332 1.80008489 5.17308007 3.82418302 7 8 C7.33 8.66 7.66 9.32 8 10 C6.140625 9.78515625 6.140625 9.78515625 4 9 C2.734375 6.93359375 2.734375 6.93359375 1.75 4.4375 C1.41484375 3.61121094 1.0796875 2.78492187 0.734375 1.93359375 C0.49203125 1.29550781 0.2496875 0.65742187 0 0 Z " fill="#241305" transform="translate(111,75)"/>
<path d="M0 0 C0.66 0.33 1.32 0.66 2 1 C2 1.66 2 2.32 2 3 C1.01 3.495 1.01 3.495 0 4 C-0.65213292 6.02463255 -0.65213292 6.02463255 -1 8 C-2.32 8.33 -3.64 8.66 -5 9 C-4.5504955 7.68445015 -4.09010284 6.37261642 -3.625 5.0625 C-3.36976562 4.33160156 -3.11453125 3.60070313 -2.8515625 2.84765625 C-2 1 -2 1 0 0 Z " fill="#F9B530" transform="translate(107,44)"/>
<path d="M0 0 C0.66 0.33 1.32 0.66 2 1 C-0.475 5.455 -0.475 5.455 -3 10 C-3.33 10 -3.66 10 -4 10 C-3.67 7.36 -3.34 4.72 -3 2 C-2.01 2 -1.02 2 0 2 C0 1.34 0 0.68 0 0 Z " fill="#DE9D3A" transform="translate(92,97)"/>
<path d="M0 0 C0.66 1.32 1.32 2.64 2 4 C1.01 5.485 1.01 5.485 0 7 C-0.99 7 -1.98 7 -3 7 C-2.67 5.35 -2.34 3.7 -2 2 C-1.34 2 -0.68 2 0 2 C0 1.34 0 0.68 0 0 Z " fill="#120D0E" transform="translate(117,61)"/>
<path d="M0 0 C3.67230705 3.07999946 4.56802365 5.2482602 5 10 C4.34 10 3.68 10 3 10 C2.01 6.7 1.02 3.4 0 0 Z " fill="#D79C48" transform="translate(114,48)"/>
<path d="M0 0 C0.99 0 1.98 0 3 0 C5.60250805 3.37362154 6.36265043 5.76907828 6 10 C3.47650757 6.87567603 1.72743854 3.61939504 0 0 Z " fill="#2F1B05" transform="translate(136,118)"/>
<path d="M0 0 C0.99 0.33 1.98 0.66 3 1 C2.625 3.9375 2.625 3.9375 2 7 C1.01 7.495 1.01 7.495 0 8 C-0.98120464 4.94736336 -0.98120464 3.05263664 0 0 Z " fill="#080E1A" transform="translate(25,109)"/>
<path d="M0 0 C0.66 0.33 1.32 0.66 2 1 C1.67 2.65 1.34 4.3 1 6 C-0.32 6 -1.64 6 -3 6 C-1.125 1.125 -1.125 1.125 0 0 Z " fill="#060C18" transform="translate(52,64)"/>
<path d="M0 0 C0.66 0.33 1.32 0.66 2 1 C1.67 1.66 1.34 2.32 1 3 C1.66 3 2.32 3 3 3 C2.67 3.99 2.34 4.98 2 6 C1.01 6 0.02 6 -1 6 C-1.33 4.35 -1.66 2.7 -2 1 C-1.34 0.67 -0.68 0.34 0 0 Z " fill="#121636" transform="translate(118,40)"/>
<path d="M0 0 C2 2 2 2 2.125 4.625 C2.08375 5.40875 2.0425 6.1925 2 7 C1.34 7 0.68 7 0 7 C0 6.34 0 5.68 0 5 C-0.66 5 -1.32 5 -2 5 C-2 4.01 -2 3.02 -2 2 C-1.34 2 -0.68 2 0 2 C0 1.34 0 0.68 0 0 Z " fill="#0C1839" transform="translate(151,130)"/>
<path d="M0 0 C0.99 0.33 1.98 0.66 3 1 C3 2.65 3 4.3 3 6 C2.34 6 1.68 6 1 6 C1 5.01 1 4.02 1 3 C0.34 3 -0.32 3 -1 3 C-1.33 3.66 -1.66 4.32 -2 5 C-2 4.01 -2 3.02 -2 2 C-1.34 2 -0.68 2 0 2 C0 1.34 0 0.68 0 0 Z " fill="#0A0E18" transform="translate(115,121)"/>
<path d="M0 0 C2.79872437 2.52788007 4.45773019 4.20411134 5 8 C3.0625 7.375 3.0625 7.375 1 6 C0.25 2.875 0.25 2.875 0 0 Z " fill="#3F1C07" transform="translate(104,98)"/>
<path d="M0 0 C1.32 0.33 2.64 0.66 4 1 C3.3503125 1.61875 3.3503125 1.61875 2.6875 2.25 C0.94161728 4.06054505 -0.52619271 5.96474232 -2 8 C-2.33 6.68 -2.66 5.36 -3 4 C-2.34 4 -1.68 4 -1 4 C-0.67 2.68 -0.34 1.36 0 0 Z " fill="#DC972F" transform="translate(96,88)"/>
<path d="M0 0 C3 1 3 1 5 4 C4.625 6.1875 4.625 6.1875 4 8 C1.53721199 5.53721199 1.00228745 3.29323018 0 0 Z " fill="#0A1320" transform="translate(113,74)"/>
<path d="M0 0 C0.66 0 1.32 0 2 0 C0.90931332 3.77545388 0.0916909 6.47043472 -3 9 C-2.44271087 5.65626525 -1.64826111 2.96687001 0 0 Z " fill="#14191F" transform="translate(63,48)"/>
<path d="M0 0 C0.66 0.33 1.32 0.66 2 1 C0.68 3.64 -0.64 6.28 -2 9 C-2.66 7.68 -3.32 6.36 -4 5 C-2.68 3.35 -1.36 1.7 0 0 Z " fill="#282B33" transform="translate(76,26)"/>
<path d="M0 0 C3 3.75 3 3.75 3 6 C1.68 6.33 0.36 6.66 -1 7 C-1 4.37886292 -0.68707555 2.49064888 0 0 Z " fill="#EBA239" transform="translate(138,122)"/>
<path d="M0 0 C0.66 0 1.32 0 2 0 C1.75 2.375 1.75 2.375 1 5 C-1.0625 6.3125 -1.0625 6.3125 -3 7 C-1.125 2.25 -1.125 2.25 0 0 Z " fill="#DDE0E5" transform="translate(45,83)"/>
<path d="M0 0 C0.66 0 1.32 0 2 0 C2.33 1.32 2.66 2.64 3 4 C3.66 4 4.32 4 5 4 C5 4.66 5 5.32 5 6 C3.68 6 2.36 6 1 6 C0.67 4.02 0.34 2.04 0 0 Z " fill="#E9A339" transform="translate(113,82)"/>
<path d="M0 0 C0.66 0 1.32 0 2 0 C0.8141763 3.37503669 -0.27573689 5.64722731 -3 8 C-3 4.40142046 -2.04169485 2.90548882 0 0 Z " fill="#22232E" transform="translate(67,83)"/>
<path d="M0 0 C0.66 0.33 1.32 0.66 2 1 C0.68 3.31 -0.64 5.62 -2 8 C-2.33 8 -2.66 8 -3 8 C-3 6.02 -3 4.04 -3 2 C-2.01 2 -1.02 2 0 2 C0 1.34 0 0.68 0 0 Z " fill="#281613" transform="translate(101,48)"/>
</svg>
